<?xml version="1.0" encoding="UTF-8"?>
<svg width="1000px" height="1000px" viewBox="0 0 1000 1000" version="1.1" xmlns="http://www.w3.org/2000/svg" xmlns:xlink="http://www.w3.org/1999/xlink">
    <title>etc</title>
    <g id="etc" stroke="none" stroke-width="1" fill="none" fill-rule="evenodd">
        <g id="Group-2">
            <g id="Group" transform="translate(0.000000, 1.000000)">
                <path d="M56.769098,2.01125177 C51.5287634,2.01125177 47.2661578,6.22391647 47.2661578,11.4010618 C47.2661578,16.5790115 51.5287634,20.7916762 56.769098,20.7916762 C62.0094327,20.7916762 66.2728523,16.5790115 66.2728523,11.4010618 C66.2728523,6.22391647 62.0094327,2.01125177 56.769098,2.01125177 M56.769098,22.8026866 C50.4077534,22.8026866 45.2309183,17.6874804 45.2309183,11.4010618 C45.2309183,5.1146431 50.4077534,0.000241321254 56.769098,0.000241321254 C63.1312567,0.000241321254 68.3080918,5.1146431 68.3080918,11.4010618 C68.3080918,17.6874804 63.1312567,22.8026866 56.769098,22.8026866" id="Fill-1" fill="#333434"></path>
                <path d="M82.6150114,2.01125177 C77.3746767,2.01125177 73.1120711,6.22391647 73.1120711,11.4010618 C73.1120711,16.5790115 77.3746767,20.7916762 82.6150114,20.7916762 C87.855346,20.7916762 92.1187657,16.5790115 92.1187657,11.4010618 C92.1187657,6.22391647 87.855346,2.01125177 82.6150114,2.01125177 M82.6150114,22.8026866 C76.2536668,22.8026866 71.0768316,17.6874804 71.0768316,11.4010618 C71.0768316,5.1146431 76.2536668,0.000241321254 82.6150114,0.000241321254 C88.97717,0.000241321254 94.1540052,5.1146431 94.1540052,11.4010618 C94.1540052,17.6874804 88.97717,22.8026866 82.6150114,22.8026866" id="Fill-3" fill="#333434"></path>
                <path d="M108.461006,2.01125177 C103.220672,2.01125177 98.9580659,6.22391647 98.9580659,11.4010618 C98.9580659,16.5790115 103.220672,20.7916762 108.461006,20.7916762 C113.701341,20.7916762 117.964761,16.5790115 117.964761,11.4010618 C117.964761,6.22391647 113.701341,2.01125177 108.461006,2.01125177 M108.461006,22.8026866 C102.099662,22.8026866 96.9228264,17.6874804 96.9228264,11.4010618 C96.9228264,5.1146431 102.099662,0.000241321254 108.461006,0.000241321254 C114.823165,0.000241321254 120,5.1146431 120,11.4010618 C120,17.6874804 114.823165,22.8026866 108.461006,22.8026866" id="Fill-5" fill="#333434"></path>
                <path d="M42.4620156,15.9618726 C42.4620156,16.5917211 41.9450648,17.1017133 41.3076278,17.1017133 C40.6710049,17.1017133 40.1540541,16.5917211 40.1540541,15.9618726 C40.1540541,15.3320241 40.6710049,14.8220319 41.3076278,14.8220319 C41.9450648,14.8220319 42.4620156,15.3320241 42.4620156,15.9618726" id="Fill-89" fill="#333434"></path>
                <path d="M42.4620156,6.84081403 C42.4620156,7.47066251 41.9450648,7.98065476 41.3076278,7.98065476 C40.6710049,7.98065476 40.1540541,7.47066251 40.1540541,6.84081403 C40.1540541,6.21096556 40.6710049,5.70097331 41.3076278,5.70097331 C41.9450648,5.70097331 42.4620156,6.21096556 42.4620156,6.84081403" id="Fill-91" fill="#333434"></path>
                <path d="M37.3849886,22.8024453 C31.02283,22.8024453 25.8459948,17.6880435 25.8459948,11.4016249 L25.8459948,0 L27.8812343,0 L27.8812343,11.4016249 C27.8812343,16.5787702 32.144654,20.7914349 37.3849886,20.7914349 L37.3849886,22.8024453 Z" id="Fill-93" fill="#333434"></path>
                <path d="M23.0771736,22.8024453 L21.0419341,22.8024453 L21.0419341,11.2946391 C21.0419341,6.1762153 16.7793285,2.01101045 11.5389938,2.01101045 C6.29947328,2.01101045 2.03523949,6.1762153 2.03523949,11.2946391 L2.03523949,22.8024453 L0,22.8024453 L0,11.2946391 C0,5.06694193 5.17683518,0 11.5389938,0 C17.9011525,0 23.0771736,5.06694193 23.0771736,11.2946391 L23.0771736,22.8024453 Z" id="Fill-95" fill="#77E4C4"></path>
                <polygon id="Fill-97" fill="#77E4C4" points="4.61600458 15.0387384 18.4621459 15.0387384 18.4621459 13.0277279 4.61600458 13.0277279"></polygon>
            </g>
            <rect id="Rectangle" x="0" y="0" width="120" height="24"></rect>
        </g>
        <g id="Group-Copy" transform="translate(120.000000, 1.000000)">
            <path d="M56.769098,2.01125177 C51.5287634,2.01125177 47.2661578,6.22391647 47.2661578,11.4010618 C47.2661578,16.5790115 51.5287634,20.7916762 56.769098,20.7916762 C62.0094327,20.7916762 66.2728523,16.5790115 66.2728523,11.4010618 C66.2728523,6.22391647 62.0094327,2.01125177 56.769098,2.01125177 M56.769098,22.8026866 C50.4077534,22.8026866 45.2309183,17.6874804 45.2309183,11.4010618 C45.2309183,5.1146431 50.4077534,0.000241321254 56.769098,0.000241321254 C63.1312567,0.000241321254 68.3080918,5.1146431 68.3080918,11.4010618 C68.3080918,17.6874804 63.1312567,22.8026866 56.769098,22.8026866" id="Fill-1" fill="#FFFFFF"></path>
            <path d="M82.6150114,2.01125177 C77.3746767,2.01125177 73.1120711,6.22391647 73.1120711,11.4010618 C73.1120711,16.5790115 77.3746767,20.7916762 82.6150114,20.7916762 C87.855346,20.7916762 92.1187657,16.5790115 92.1187657,11.4010618 C92.1187657,6.22391647 87.855346,2.01125177 82.6150114,2.01125177 M82.6150114,22.8026866 C76.2536668,22.8026866 71.0768316,17.6874804 71.0768316,11.4010618 C71.0768316,5.1146431 76.2536668,0.000241321254 82.6150114,0.000241321254 C88.97717,0.000241321254 94.1540052,5.1146431 94.1540052,11.4010618 C94.1540052,17.6874804 88.97717,22.8026866 82.6150114,22.8026866" id="Fill-3" fill="#FFFFFF"></path>
            <path d="M108.461006,2.01125177 C103.220672,2.01125177 98.9580659,6.22391647 98.9580659,11.4010618 C98.9580659,16.5790115 103.220672,20.7916762 108.461006,20.7916762 C113.701341,20.7916762 117.964761,16.5790115 117.964761,11.4010618 C117.964761,6.22391647 113.701341,2.01125177 108.461006,2.01125177 M108.461006,22.8026866 C102.099662,22.8026866 96.9228264,17.6874804 96.9228264,11.4010618 C96.9228264,5.1146431 102.099662,0.000241321254 108.461006,0.000241321254 C114.823165,0.000241321254 120,5.1146431 120,11.4010618 C120,17.6874804 114.823165,22.8026866 108.461006,22.8026866" id="Fill-5" fill="#FFFFFF"></path>
            <path d="M42.4620156,15.9618726 C42.4620156,16.5917211 41.9450648,17.1017133 41.3076278,17.1017133 C40.6710049,17.1017133 40.1540541,16.5917211 40.1540541,15.9618726 C40.1540541,15.3320241 40.6710049,14.8220319 41.3076278,14.8220319 C41.9450648,14.8220319 42.4620156,15.3320241 42.4620156,15.9618726" id="Fill-89" fill="#FFFFFF"></path>
            <path d="M42.4620156,6.84081403 C42.4620156,7.47066251 41.9450648,7.98065476 41.3076278,7.98065476 C40.6710049,7.98065476 40.1540541,7.47066251 40.1540541,6.84081403 C40.1540541,6.21096556 40.6710049,5.70097331 41.3076278,5.70097331 C41.9450648,5.70097331 42.4620156,6.21096556 42.4620156,6.84081403" id="Fill-91" fill="#FFFFFF"></path>
            <path d="M37.3849886,22.8024453 C31.02283,22.8024453 25.8459948,17.6880435 25.8459948,11.4016249 L25.8459948,0 L27.8812343,0 L27.8812343,11.4016249 C27.8812343,16.5787702 32.144654,20.7914349 37.3849886,20.7914349 L37.3849886,22.8024453 Z" id="Fill-93" fill="#FFFFFF"></path>
            <path d="M23.0771736,22.8024453 L21.0419341,22.8024453 L21.0419341,11.2946391 C21.0419341,6.1762153 16.7793285,2.01101045 11.5389938,2.01101045 C6.29947328,2.01101045 2.03523949,6.1762153 2.03523949,11.2946391 L2.03523949,22.8024453 L0,22.8024453 L0,11.2946391 C0,5.06694193 5.17683518,0 11.5389938,0 C17.9011525,0 23.0771736,5.06694193 23.0771736,11.2946391 L23.0771736,22.8024453 Z" id="Fill-95" fill="#77E4C4"></path>
            <polygon id="Fill-97" fill="#77E4C4" points="4.61600458 15.0387384 18.4621459 15.0387384 18.4621459 13.0277279 4.61600458 13.0277279"></polygon>
        </g>
        <rect id="Rectangle" x="120" y="0" width="120" height="24"></rect>
    </g>
</svg>