<svg width="28" height="28" viewBox="0 0 28 28" fill="none" xmlns="http://www.w3.org/2000/svg">
<path d="M13.7052 0.53125C6.13601 0.53125 0 6.66745 0 14.2366C0 21.8058 6.13601 27.9417 13.7052 27.9417C21.2744 27.9417 27.4103 21.8058 27.4103 14.2366C27.4103 6.66745 21.2744 0.53125 13.7052 0.53125ZM20.2444 9.44076C20.2072 9.99294 19.8908 11.9347 19.5682 14.0379L18.5755 20.2546C18.5755 20.2546 18.4949 21.1667 17.8248 21.3218C17.1548 21.4769 16.0442 20.7697 15.8457 20.6084C15.6843 20.4905 12.8738 18.7098 11.8439 17.835C11.5647 17.5992 11.2483 17.1215 11.8811 16.5693C13.3081 15.2602 15.0081 13.6409 16.038 12.611C16.5157 12.1333 16.9872 11.029 15.0081 12.3754L9.42424 16.1412C9.42424 16.1412 8.79141 16.5383 7.6002 16.1785C6.40898 15.8248 5.02546 15.3472 5.02546 15.3472C5.02546 15.3472 4.07619 14.7516 5.7017 14.1188L14.9336 10.3154C15.8456 9.91828 18.9354 8.65281 18.9354 8.65281C18.9354 8.65281 20.3623 8.09444 20.2444 9.44076Z" fill="#002863"/>
</svg>
