<svg width="30" height="24" viewBox="0 0 30 24" fill="none" xmlns="http://www.w3.org/2000/svg">
<path d="M4.28747 5.37947C4.3247 5.02583 4.18819 4.67838 3.92761 4.43641L1.2412 1.19797V0.713867H9.58592L16.0383 14.8597L21.709 0.713867H29.6628V1.19797L27.3672 3.40035C27.1687 3.54925 27.0695 3.79745 27.1129 4.04562V20.2324C27.0695 20.4806 27.1687 20.7288 27.3672 20.8777L29.6132 23.0803V23.5641H18.3277V23.0803L20.6543 20.8219C20.8838 20.5924 20.8838 20.5241 20.8838 20.1766V7.092L14.419 23.5084H13.5442L6.01848 7.092V18.0921C5.95644 18.5574 6.11149 19.0228 6.43411 19.3578L9.45558 23.0243V23.5084H0.881348V23.0243L3.90281 19.3578C4.22543 19.0228 4.36813 18.5512 4.29368 18.0921V5.37947H4.28747Z" fill="#002863"/>
</svg>
