<svg width="23" height="23" viewBox="0 0 23 23" fill="none" xmlns="http://www.w3.org/2000/svg">
<path d="M11.1841 0C5.00729 0 0 5.00744 0 11.1843C0 17.3611 5.00729 22.3683 11.1841 22.3683C17.3609 22.3683 22.3682 17.3611 22.3682 11.1843C22.3682 5.00744 17.3609 0 11.1841 0ZM16.5205 7.2706C16.4901 7.7212 16.2319 9.30574 15.9686 11.0221L15.1585 16.0952C15.1585 16.0952 15.0927 16.8396 14.5459 16.9661C13.9991 17.0927 13.0929 16.5156 12.9308 16.3839C12.7992 16.2877 10.5057 14.8346 9.66522 14.1207C9.43738 13.9283 9.17917 13.5384 9.69559 13.0878C10.8601 12.0195 12.2473 10.6982 13.0878 9.85771C13.4776 9.46786 13.8624 8.56671 12.2473 9.66537L7.69065 12.7385C7.69065 12.7385 7.17422 13.0626 6.20213 12.7689C5.23004 12.4803 4.10102 12.0906 4.10102 12.0906C4.10102 12.0906 3.32637 11.6045 4.65287 11.0881L12.1866 7.98431C12.9308 7.66028 15.4522 6.62759 15.4522 6.62759C15.4522 6.62759 16.6167 6.17193 16.5205 7.2706Z" fill="#F3F4F6"/>
</svg>
