<?xml version="1.0" standalone="no"?>
<!DOCTYPE svg PUBLIC "-//W3C//DTD SVG 20010904//EN"
 "http://www.w3.org/TR/2001/REC-SVG-20010904/DTD/svg10.dtd">
<svg version="1.0" xmlns="http://www.w3.org/2000/svg"
 width="260.000000pt" height="260.000000pt" viewBox="0 0 260.000000 260.000000"
 preserveAspectRatio="xMidYMid meet">
<metadata>
Created by potrace 1.14, written by Peter Selinger 2001-2017
</metadata>
<g transform="translate(0.000000,260.000000) scale(0.100000,-0.100000)"
fill="#000000" stroke="none">
<path d="M655 2296 c-35 -18 -59 -40 -80 -73 l-30 -48 3 -860 c3 -804 4 -863
21 -901 69 -155 285 -167 364 -20 20 38 22 59 27 260 4 184 7 220 20 222 56 9
79 16 127 40 29 15 60 35 69 46 10 10 20 18 25 18 4 0 38 -37 75 -82 37 -46
70 -85 74 -88 3 -3 21 -25 40 -50 19 -25 40 -51 47 -58 7 -7 29 -34 50 -60 21
-26 45 -55 54 -65 9 -10 58 -69 110 -132 66 -80 108 -122 142 -140 137 -76
300 18 300 174 1 52 -28 133 -50 143 -5 1 -33 35 -64 73 -31 39 -65 80 -75 91
-28 33 -78 92 -224 269 -73 88 -150 180 -170 205 l-38 45 95 115 c52 63 105
126 116 140 12 14 40 48 62 75 21 28 42 52 45 55 3 3 27 32 55 65 27 33 52 62
55 65 21 20 133 164 149 191 54 93 17 220 -80 270 -53 26 -101 30 -159 13 -48
-14 -92 -54 -185 -168 -22 -27 -44 -54 -50 -60 -5 -6 -30 -36 -55 -66 -24 -30
-52 -64 -62 -75 -9 -11 -47 -56 -84 -100 -36 -44 -76 -91 -88 -105 -12 -14
-34 -42 -49 -62 l-29 -37 -46 34 c-63 45 -132 71 -193 74 -13 1 -15 28 -16
216 0 208 -1 216 -25 262 -52 102 -172 141 -273 89z"/>
</g>
</svg>
