<svg width="24" height="24" viewBox="0 0 24 24" fill="none" xmlns="http://www.w3.org/2000/svg">
<path d="M21.1128 8.88203C20.9588 8.73599 20.8213 8.60669 20.6977 8.49064C20.2224 8.04473 19.984 7.82119 19.8735 7.62764C19.7629 7.43408 19.6905 7.11318 19.5465 6.47411C19.5091 6.30781 19.4671 6.12283 19.419 5.91487C19.1336 4.68462 18.1034 3.81032 16.8551 3.73983C16.6448 3.72815 16.4573 3.71841 16.289 3.71024C15.6415 3.67752 15.3165 3.66156 15.1089 3.58484C14.9013 3.5085 14.6421 3.30989 14.1256 2.91422C13.9935 2.81296 13.8464 2.70041 13.6808 2.57501C13.6777 2.57267 13.675 2.57034 13.6719 2.56839C12.6706 1.81054 11.3257 1.81054 10.3262 2.56839C10.1576 2.69613 10.0081 2.81062 9.87371 2.91344C9.35685 3.3095 9.09727 3.50811 8.88968 3.58445C8.68209 3.66078 8.35703 3.67713 7.70999 3.70985C7.5413 3.71841 7.35374 3.72776 7.14345 3.73944C5.89483 3.80954 4.86459 4.68345 4.5792 5.91448C4.53106 6.12244 4.48907 6.30782 4.45172 6.4745C4.30767 7.11318 4.23527 7.43369 4.12473 7.62724C4.0142 7.8208 3.77541 8.04473 3.30015 8.49064C3.17652 8.6063 3.03903 8.7356 2.88574 8.88125C1.97412 9.7462 1.74072 11.0855 2.30456 12.2137C2.39969 12.4041 2.48558 12.5736 2.56261 12.7254C2.85801 13.3084 3.00667 13.6009 3.0448 13.8209C3.08332 14.041 3.04288 14.3673 2.962 15.0177C2.9412 15.1867 2.91771 15.3752 2.89267 15.5871C2.74439 16.8422 3.41685 18.0199 4.5661 18.5176C4.76021 18.6017 4.93314 18.6753 5.08874 18.7415C5.68609 18.9958 5.98573 19.1236 6.1548 19.2673C6.32426 19.411 6.50066 19.6875 6.85229 20.2382C6.94395 20.3815 7.04563 20.5408 7.16079 20.7191C7.6892 21.5366 8.56385 22 9.48626 22C9.75778 22 10.0335 21.9599 10.3058 21.8765C10.5076 21.815 10.6871 21.7589 10.8485 21.7087C11.4678 21.5155 11.7786 21.4186 11.9997 21.4186C12.2207 21.4186 12.5316 21.5155 13.1509 21.7087C13.3122 21.7589 13.4917 21.815 13.6935 21.8765C13.9658 21.9599 14.2416 22 14.5131 22C15.4351 22 16.3098 21.5366 16.8386 20.7191L16.9745 20.5084C17.4201 19.818 17.6439 19.4714 17.8573 19.2836C18.0498 19.1142 18.3356 18.9884 19.0211 18.6948C19.1471 18.6407 19.2842 18.5823 19.4332 18.5176C20.5829 18.0203 21.2553 16.8422 21.1071 15.5871C21.082 15.3752 21.0585 15.1867 21.0377 15.0173C20.9572 14.3673 20.9164 14.041 20.9549 13.8205C20.9934 13.6005 21.1417 13.3076 21.4379 12.7243C21.5149 12.5728 21.6004 12.4038 21.6956 12.2133C22.2594 11.0851 22.0256 9.74581 21.114 8.88086L21.1128 8.88203ZM15.7856 10.5235L11.6958 14.659C11.536 14.8206 11.3268 14.9012 11.1173 14.9012C10.9078 14.9012 10.6987 14.8206 10.5388 14.659L8.33931 12.4353C8.02003 12.1125 8.02003 11.5887 8.33931 11.2658C8.65859 10.943 9.1766 10.943 9.49588 11.2658L11.1169 12.905L14.6282 9.35442C14.9475 9.03157 15.4655 9.03157 15.7848 9.35442C16.1041 9.67727 16.1049 10.2007 15.7856 10.5235Z" fill="#0039cc"/>
</svg>
