<svg width="20" height="20" viewBox="0 0 20 20" fill="none" xmlns="http://www.w3.org/2000/svg">
<path fill-rule="evenodd" clip-rule="evenodd" d="M10 3.5C6.41015 3.5 3.5 6.41015 3.5 10C3.5 13.5899 6.41015 16.5 10 16.5C13.5899 16.5 16.5 13.5899 16.5 10C16.5 6.41015 13.5899 3.5 10 3.5ZM2.5 10C2.5 5.85786 5.85786 2.5 10 2.5C14.1421 2.5 17.5 5.85786 17.5 10C17.5 14.1421 14.1421 17.5 10 17.5C5.85786 17.5 2.5 14.1421 2.5 10Z" fill="#999999"/>
<path fill-rule="evenodd" clip-rule="evenodd" d="M9.82104 5.36996C10.0972 5.36996 10.321 5.59382 10.321 5.86996V10.1788C10.321 10.455 10.0972 10.6788 9.82104 10.6788C9.5449 10.6788 9.32104 10.455 9.32104 10.1788V5.86996C9.32104 5.59382 9.5449 5.36996 9.82104 5.36996Z" fill="#999999"/>
<path fill-rule="evenodd" clip-rule="evenodd" d="M9.44483 9.84955C9.62671 9.64176 9.94259 9.62076 10.1504 9.80265L13.0204 12.3149C13.2282 12.4968 13.2492 12.8126 13.0673 13.0204C12.8854 13.2282 12.5695 13.2492 12.3617 13.0673L9.49173 10.5551C9.28394 10.3732 9.26295 10.0573 9.44483 9.84955Z" fill="#999999"/>
</svg>
