<svg width="20" height="20" viewBox="0 0 20 20" fill="none" xmlns="http://www.w3.org/2000/svg">
<path d="M16.245 3.75469C15.7619 3.27162 15.1066 3 14.4234 3H7.15295C6.46973 3 5.8144 3.27162 5.33105 3.75469C4.84796 4.23777 4.57634 5.72255 4.57634 6.40602H5.86437C5.86437 6.06429 6.00018 4.90716 6.24172 4.66563C6.48326 4.42409 6.81093 4.28828 7.15267 4.28828H14.4231C14.7649 4.28828 15.0925 4.42409 15.3341 4.66563C15.5756 4.90716 15.7114 5.23482 15.7114 5.57656V12.8469C15.7114 13.1886 15.5756 13.5163 15.3341 13.7578C15.0925 13.9993 13.9354 14.1352 13.5936 14.1352V8.98231C13.5936 8.29911 13.3223 7.64379 12.8389 7.16044C12.3556 6.6771 11.7005 6.40575 11.017 6.40575L4.57634 6.40602C3.89312 6.40602 3.23779 6.6771 2.75471 7.16044C2.27163 7.64379 2 8.29911 2 8.98231V15.4232C2 16.1064 2.27163 16.762 2.75471 17.245C3.23779 17.7281 3.89312 17.9997 4.57661 17.9997H11.0176C11.7008 17.9997 12.3561 17.7281 12.8395 17.245C13.3226 16.762 13.5942 16.1066 13.5942 15.4232C14.2774 15.4232 15.7622 15.1515 16.2453 14.6685C16.7284 14.1854 17 13.5301 17 12.8466V5.57656C17 4.89336 16.7281 4.23777 16.245 3.75469ZM12.3056 15.4232C12.3056 15.7649 12.1698 16.0926 11.9283 16.3341C11.6867 16.5756 11.3591 16.7114 11.0173 16.7114H4.57661C4.23487 16.7114 3.9072 16.5756 3.66566 16.3341C3.42412 16.0926 3.28831 15.7649 3.28831 15.4232V8.98231C3.28831 8.64057 3.42412 8.31291 3.66566 8.07138C3.9072 7.82984 4.23487 7.69403 4.57661 7.69403H11.0176C11.3593 7.69403 11.687 7.82984 11.9285 8.07138C12.1701 8.31291 12.3059 8.64057 12.3059 8.98231L12.3056 15.4232Z" fill="#9FB1CC"/>
</svg>
