<svg width="20" height="20" viewBox="0 0 20 20" fill="none" xmlns="http://www.w3.org/2000/svg">
<path d="M14.3588 4.30211C13.2599 2.83327 11.5792 2 9.76923 2C7.95925 2 6.27855 2.83327 5.17963 4.30211C3.60679 6.4069 3.60679 9.32278 5.17963 11.4276L9.13611 16.682C9.45525 17.106 10.0828 17.106 10.402 16.682L14.3585 11.4276C15.9313 9.32278 15.9313 6.4069 14.3585 4.30211H14.3588ZM9.76923 5.87131C10.839 5.87131 11.7004 6.82297 11.5766 7.9355C11.4821 8.78494 10.8135 9.46523 9.97867 9.56183C8.88566 9.68774 7.95001 8.81125 7.95001 7.72277C7.95001 6.70458 8.76857 5.87168 9.76923 5.87168V5.87131Z" fill="black"/>
</svg>
