<svg width="20" height="20" viewBox="0 0 20 20" fill="none" xmlns="http://www.w3.org/2000/svg">
<circle cx="10" cy="10" r="7.5" fill="#00A3FF"/>
<g clip-path="url(#clip0_43_732)">
<g clip-path="url(#clip1_43_732)">
<path d="M10.0001 17.5003C14.1424 17.5003 17.5003 14.1424 17.5003 10.0001C17.5003 5.85793 14.1424 2.5 10.0001 2.5C5.85793 2.5 2.5 5.85793 2.5 10.0001C2.5 14.1424 5.85793 17.5003 10.0001 17.5003Z" fill="#00A3FF"/>
<path d="M13.5572 6.78533L13.5581 6.78419C13.8492 6.42013 13.7971 5.9051 13.4387 5.61112C13.2698 5.47182 13.0471 5.4046 12.8283 5.42568C12.6072 5.44733 12.4067 5.555 12.2637 5.72934L9.99959 8.50618L9.99219 8.51529L11.0698 9.83934L13.557 6.78533H13.5572Z" fill="white"/>
<path d="M8.54287 6.19516C8.54287 5.73454 8.1697 5.35938 7.71079 5.35938C7.25187 5.35938 6.875 5.73425 6.875 6.19516V10.2519C6.87842 10.8951 7.25301 11.4902 7.82929 11.7676C8.05547 11.8765 8.29333 11.9303 8.53347 11.9303C8.9337 11.9303 9.34048 11.781 9.71081 11.4888L9.7222 11.4799L8.54629 10.0371L8.54287 6.19516Z" fill="white"/>
<path d="M9.77835 8.58836C9.43282 8.22516 9.09468 8.14454 8.76766 8.06677L8.75 8.0625V9.96225L12.2624 14.2719C12.427 14.4739 12.6671 14.5784 12.9096 14.5784C13.0953 14.5784 13.2824 14.5169 13.4374 14.3907C13.61 14.2491 13.7177 14.0492 13.7402 13.8281C13.763 13.6062 13.6975 13.3891 13.5559 13.2165L9.77835 8.58836Z" fill="white"/>
<path d="M8.54515 12.1362L8.54258 13.8115C8.54258 14.2701 8.16771 14.6433 7.70708 14.6433C7.24646 14.6433 6.875 14.2761 6.875 13.8075V11.1016C7.06045 11.467 7.36126 11.771 7.73956 11.9533C7.99195 12.0747 8.25915 12.1365 8.53347 12.1365C8.53746 12.1365 8.54116 12.1365 8.54515 12.1362Z" fill="white"/>
</g>
</g>
<defs>
<clipPath id="clip0_43_732">
<rect width="15" height="15" fill="white" transform="translate(2.5 2.5)"/>
</clipPath>
<clipPath id="clip1_43_732">
<rect width="15" height="15" fill="white" transform="translate(2.5 2.5)"/>
</clipPath>
</defs>
</svg>
