<svg width="24" height="24" viewBox="0 0 24 24" fill="none" xmlns="http://www.w3.org/2000/svg">
<path fill-rule="evenodd" clip-rule="evenodd" d="M12 21.1667C17.0626 21.1667 21.1667 17.0626 21.1667 12C21.1667 6.93739 17.0626 2.83333 12 2.83333C6.93739 2.83333 2.83333 6.93739 2.83333 12C2.83333 17.0626 6.93739 21.1667 12 21.1667ZM12 22C17.5228 22 22 17.5228 22 12C22 6.47715 17.5228 2 12 2C6.47715 2 2 6.47715 2 12C2 17.5228 6.47715 22 12 22Z" fill="#C5C5C5"/>
<path fill-rule="evenodd" clip-rule="evenodd" d="M17.8332 11.9997H6.1665V11.1664H17.8332V11.9997Z" fill="#C5C5C5"/>
<path fill-rule="evenodd" clip-rule="evenodd" d="M17.8332 12.833H6.1665V11.9997H17.8332V12.833Z" fill="#C5C5C5"/>
</svg>
