<svg width="24" height="24" viewBox="0 0 24 24" fill="none" xmlns="http://www.w3.org/2000/svg">
<path d="M12 0C5.37276 0 0 5.37276 0 12C0 18.6272 5.37276 24 12 24C18.6272 24 24 18.6272 24 12C24 5.37276 18.6272 0 12 0ZM12.0205 18.5781C11.1073 18.5781 10.362 17.8328 10.362 16.9196C10.362 16.0064 11.1073 15.2612 12.0205 15.2612C12.9337 15.2612 13.6789 16.0064 13.6789 16.9196C13.6789 17.8328 12.9337 18.5781 12.0205 18.5781ZM13.751 7.32946L13.2705 12.8096C13.2463 13.1459 13.0783 13.4585 12.8137 13.6748C12.5973 13.867 12.3089 13.9633 11.9963 13.9633H11.8763C11.2752 13.9153 10.7705 13.4343 10.7226 12.8096L10.242 7.32946C10.1941 6.87265 10.3379 6.41625 10.6505 6.05572C10.9631 5.69519 11.3715 5.47887 11.8283 5.43093C12.3089 5.383 12.7416 5.5268 13.1021 5.8394C13.4626 6.12783 13.6789 6.56046 13.7269 7.01728C13.7748 7.13732 13.7748 7.23359 13.751 7.32946Z" fill="#0039CC"/>
</svg>
