<svg width="20" height="20" viewBox="0 0 20 20" fill="none" xmlns="http://www.w3.org/2000/svg">
<path d="M16.9915 15.2638C16.9481 14.922 16.7532 14.6257 16.4567 14.4501L13.8233 12.874C13.5841 12.7314 13.2997 12.6715 13.023 12.706C12.7466 12.7404 12.4855 12.8677 12.2884 13.0648L11.6901 13.6631L11.6861 13.6672C11.5815 13.7749 11.4482 13.8468 11.3012 13.8759C11.1541 13.9049 11.0034 13.8888 10.8666 13.8289C8.75443 12.9057 7.08091 11.2353 6.1545 9.12789C6.09504 8.9907 6.07894 8.84055 6.108 8.69353C6.13707 8.54652 6.20905 8.4138 6.31636 8.30968L6.91637 7.70283C7.11355 7.50576 7.24097 7.24524 7.2754 6.96863C7.30983 6.69202 7.25036 6.40781 7.10773 6.16918L5.53839 3.53177C5.49055 3.45223 5.43287 3.37894 5.36759 3.31459C5.19367 3.14166 4.96386 3.03083 4.71974 3.00268L4.69649 3H4.58069C4.28783 3 4.00213 3.11931 3.7978 3.32532L3.37171 3.75118C2.7158 4.40942 2.27317 5.2388 2.0912 6.14952C1.91504 7.03432 1.99507 7.9419 2.3228 8.77978L2.35231 8.85351C3.16023 10.843 4.3397 12.6219 5.85762 14.1404C7.37555 15.6593 9.15414 16.8404 11.1433 17.6501C11.712 17.8825 12.3138 17.9995 12.9197 17.9995C13.2309 17.9995 13.5429 17.9687 13.8519 17.9061C14.7635 17.7225 15.5925 17.2779 16.2497 16.6205L16.6754 16.1853C16.919 15.9413 17.0344 15.6052 16.991 15.2629L16.9915 15.2638Z" fill="black"/>
</svg>
