<svg width="20" height="20" viewBox="0 0 20 20" fill="none" xmlns="http://www.w3.org/2000/svg">
<path fill-rule="evenodd" clip-rule="evenodd" d="M10 1.27673C5.18227 1.27673 1.27673 5.18227 1.27673 10C1.27673 14.8177 5.18227 18.7233 10 18.7233C14.8177 18.7233 18.7233 14.8177 18.7233 10C18.7233 5.18227 14.8177 1.27673 10 1.27673ZM0 10C0 4.47715 4.47715 0 10 0C15.5228 0 20 4.47715 20 10C20 15.5228 15.5228 20 10 20C4.47715 20 0 15.5228 0 10Z" fill="#0039CC"/>
<path fill-rule="evenodd" clip-rule="evenodd" d="M5 10C5 9.44772 5.36638 9 5.81833 9H14.1817C14.6336 9 15 9.44772 15 10C15 10.5523 14.6336 11 14.1817 11H5.81833C5.36638 11 5 10.5523 5 10Z" fill="#0039CC"/>
<path fill-rule="evenodd" clip-rule="evenodd" d="M10 5C10.5523 5 11 5.36638 11 5.81833V14.1817C11 14.6336 10.5523 15 10 15C9.44772 15 9 14.6336 9 14.1817V5.81833C9 5.36638 9.44772 5 10 5Z" fill="#0039CC"/>
</svg>
