<svg width="15" height="20" viewBox="0 0 15 20" fill="none" xmlns="http://www.w3.org/2000/svg">
<g clip-path="url(#clip0_7540_63851)">
<path d="M14.588 3.07775L14.5898 3.0753C15.2254 2.29106 15.1116 1.18158 14.3293 0.5483C13.9605 0.248226 13.4741 0.103405 12.9965 0.148815C12.5139 0.195453 12.076 0.427411 11.7638 0.802964L6.82086 6.7848L6.80469 6.80444L9.1574 9.65667L14.5873 3.07775H14.588Z" fill="#2F82FF"/>
<path d="M3.64132 1.80044C3.64132 0.808174 2.82661 0 1.8247 0C0.822795 0 0 0.80756 0 1.80044V10.5394C0.007463 11.925 0.825283 13.2069 2.08342 13.8046C2.57722 14.039 3.09652 14.155 3.6208 14.155C4.49459 14.155 5.38269 13.8335 6.19118 13.2039L6.21605 13.1848L3.64878 10.0767L3.64132 1.80044Z" fill="#2F82FF"/>
<path d="M6.33887 6.96092C5.58448 6.17852 4.84627 6.00486 4.13231 5.83733L4.09375 5.82812V9.92054L11.762 19.2044C12.1214 19.6395 12.6457 19.8647 13.175 19.8647C13.5805 19.8647 13.9891 19.7322 14.3274 19.4603C14.7043 19.1553 14.9393 18.7245 14.9885 18.2484C15.0382 17.7703 14.8952 17.3027 14.5861 16.9308L6.33887 6.96092Z" fill="#2F82FF"/>
<path d="M3.6463 14.596L3.6407 18.2048C3.6407 19.1928 2.82226 19.9967 1.81662 19.9967C0.810979 19.9967 0 19.2057 0 18.1962V12.3672C0.404868 13.1545 1.06161 13.8093 1.88752 14.202C2.43853 14.4634 3.02189 14.5966 3.6208 14.5966C3.6295 14.5966 3.63759 14.5966 3.6463 14.596Z" fill="#2F82FF"/>
</g>
<defs>
<clipPath id="clip0_7540_63851">
<rect width="15" height="20" fill="white"/>
</clipPath>
</defs>
</svg>
