<svg width="27" height="27" viewBox="0 0 27 27" fill="none" xmlns="http://www.w3.org/2000/svg">
    <path d="M21 19.719v-13s-1-2-4.5-2-4.5 3-4.5 3-1-3-4.5-3-4.5 2-4.5 2v13s1-2 4.5-2 4.5 2 4.5 2 1-2 4.5-2 4.5 2 4.5 2z" fill="#2F82FF"/>
    <path d="M21 6.719h1a.999.999 0 0 0-.106-.447L21 6.719zm0 13-.894.447A1 1 0 0 0 22 19.719h-1zm-18-13-.894-.447A1 1 0 0 0 2 6.719h1zm0 13H2a1 1 0 0 0 1.894.447L3 19.719zm9 0-.894.447a1 1 0 0 0 1.788 0L12 19.719zm0-12-.949.316a1 1 0 0 0 1.898 0L12 7.719zm8-1v13h2v-13h-2zm-18 0v13h2v-13H2zm19 13 .894-.449v-.001l-.002-.003-.003-.006-.008-.014a3.544 3.544 0 0 0-.308-.46 4.698 4.698 0 0 0-.922-.876c-.864-.628-2.196-1.191-4.151-1.191v2c1.545 0 2.463.437 2.974.808a2.7 2.7 0 0 1 .531.5 1.54 1.54 0 0 1 .11.157l-.002-.004a.734.734 0 0 1-.003-.006l-.002-.003-.001-.003c-.001-.001-.001-.002.893-.45zm-4.5-3c-1.955 0-3.287.563-4.15 1.191-.426.31-.725.625-.923.875a3.544 3.544 0 0 0-.308.46l-.008.015a.333.333 0 0 1-.004.009v.001c-.001 0-.001.002.893.449l.894.448v.001l-.002.003-.002.003a.734.734 0 0 1-.003.006l-.002.004.013-.021a1.54 1.54 0 0 1 .097-.136 2.7 2.7 0 0 1 .53-.5c.512-.371 1.43-.808 2.975-.808v-2zm-4.5 3 .894-.449v-.001l-.002-.003a.333.333 0 0 1-.003-.006l-.008-.014a3.544 3.544 0 0 0-.308-.46 4.698 4.698 0 0 0-.922-.876c-.864-.628-2.196-1.191-4.151-1.191v2c1.545 0 2.463.437 2.974.808a2.7 2.7 0 0 1 .531.5 1.54 1.54 0 0 1 .11.157l-.002-.004a.734.734 0 0 1-.003-.006l-.002-.003-.001-.003c-.001-.001-.001-.002.893-.45zm-4.5-3c-1.955 0-3.287.563-4.15 1.191-.426.31-.725.625-.923.875a3.536 3.536 0 0 0-.308.46l-.008.015-.003.006-.001.003v.001c-.001 0-.001.002.893.449l.894.448v.001l-.002.003-.002.003a.663.663 0 0 0-.003.006l-.002.004.013-.021a1.53 1.53 0 0 1 .097-.136c.099-.125.269-.31.53-.5.512-.371 1.43-.808 2.975-.808v-2zm13.5-10c.894-.447.894-.448.894-.449V6.27l-.002-.003-.003-.006a1.141 1.141 0 0 0-.028-.051 3.528 3.528 0 0 0-.288-.423 4.697 4.697 0 0 0-.922-.876c-.864-.628-2.196-1.191-4.151-1.191v2c1.545 0 2.463.437 2.974.808a2.7 2.7 0 0 1 .531.5c.05.063.081.11.097.136l.013.02-.002-.003a.229.229 0 0 1-.003-.006l-.002-.003-.001-.003c-.001-.001-.001-.002.893-.45zm-4.5-3c-2.077 0-3.457.904-4.3 1.824a5.975 5.975 0 0 0-1.073 1.662 3.63 3.63 0 0 0-.072.187l-.002.006-.001.002v.002l.948.317c.949.316.948.316.948.317v.002l-.001.003v.001l.002-.008.024-.06a3.976 3.976 0 0 1 .702-1.08c.531-.58 1.402-1.175 2.825-1.175v-2zm-4.5 4c.949-.316.948-.317.948-.317v-.004l-.003-.006a.925.925 0 0 0-.02-.056 5.175 5.175 0 0 0-.252-.553 5.975 5.975 0 0 0-.873-1.24c-.844-.92-2.223-1.824-4.3-1.824v2c1.423 0 2.293.595 2.825 1.175a3.976 3.976 0 0 1 .702 1.08l.024.06.003.008v-.001l-.002-.003v-.002L12 7.719zm-4.5-4c-1.955 0-3.287.563-4.15 1.191-.426.31-.725.626-.923.876a3.521 3.521 0 0 0-.308.46 1.394 1.394 0 0 0-.01.02l-.002.003v.001c-.001 0-.001.002.893.449l.894.448v.001l-.002.003a.95.95 0 0 1-.005.01l-.002.003.013-.021c.016-.026.047-.073.097-.136.099-.125.269-.31.53-.5.512-.371 1.43-.808 2.975-.808v-2z" fill="#2F82FF"/>
</svg>
