<svg width="21" height="19" viewBox="0 0 21 19" fill="none" xmlns="http://www.w3.org/2000/svg">
    <path fill-rule="evenodd" clip-rule="evenodd" d="M1.754.98C.875 1.86.875 3.273.875 6.102v6.112c0 2.829 0 4.243.879 5.121.878.879 2.293.879 5.121.879h10.1c.953 0 1.43 0 1.82-.107a3 3 0 0 0 2.098-2.098c.107-.39.107-.867.107-1.82h-6.037a3.019 3.019 0 1 1 0-6.037H21v-2.05c0-2.829 0-4.243-.879-5.122C19.243.102 17.828.102 15 .102H6.875c-2.828 0-4.243 0-5.121.878zm4.152 3.153a1 1 0 1 0 0 2h3.019a1 1 0 1 0 0-2H5.906z" fill="#2F82FF"/>
    <path d="M15.967 11.172h-1.006" stroke="#3687FF" stroke-width="2" stroke-linecap="round"/>
</svg>
