<svg width="22" height="23" viewBox="0 0 22 23" fill="none" xmlns="http://www.w3.org/2000/svg">
<path d="M20.9047 7.78504C20.7362 7.62531 20.5858 7.48389 20.4506 7.35696C19.9308 6.86924 19.67 6.62474 19.5491 6.41305C19.4282 6.20135 19.349 5.85036 19.1915 5.15137C19.1506 4.96949 19.1047 4.76716 19.052 4.5397C18.7399 3.19412 17.6131 2.23786 16.2478 2.16076C16.0178 2.14798 15.8127 2.13733 15.6286 2.12839C14.9205 2.09261 14.5649 2.07514 14.3379 1.99123C14.1108 1.90774 13.8273 1.69051 13.2624 1.25774C13.118 1.14699 12.957 1.02389 12.7759 0.886732C12.7725 0.884176 12.7696 0.881621 12.7662 0.879491C11.671 0.0505864 10.2 0.0505864 9.10684 0.879491C8.92234 1.0192 8.75889 1.14443 8.61188 1.25689C8.04657 1.69008 7.76264 1.90732 7.53559 1.9908C7.30854 2.07429 6.95301 2.09218 6.24531 2.12796C6.06081 2.13733 5.85566 2.14755 5.62566 2.16033C4.25998 2.237 3.13315 3.19284 2.821 4.53928C2.76835 4.76674 2.72243 4.96949 2.68157 5.1518C2.52402 5.85036 2.44483 6.20092 2.32393 6.41262C2.20303 6.62432 1.94186 6.86924 1.42204 7.35696C1.28682 7.48347 1.13644 7.62488 0.96878 7.78419C-0.0283102 8.73023 -0.283587 10.1951 0.333118 11.4291C0.437166 11.6374 0.531104 11.8226 0.615354 11.9888C0.93845 12.6264 1.10105 12.9463 1.14276 13.187C1.18488 13.4276 1.14065 13.7846 1.05219 14.4959C1.02944 14.6808 1.00374 14.887 0.976362 15.1187C0.814182 16.4915 1.54968 17.7796 2.80668 18.324C3.01899 18.416 3.20813 18.4965 3.37831 18.5689C4.03166 18.847 4.35939 18.9868 4.54432 19.1439C4.72967 19.3011 4.9226 19.6035 5.3072 20.2058C5.40745 20.3626 5.51866 20.5368 5.64462 20.7319C6.22257 21.626 7.17922 22.1328 8.1881 22.1328C8.48508 22.1328 8.78669 22.089 9.08451 21.9978C9.30525 21.9305 9.50155 21.8692 9.67805 21.8142C10.3554 21.603 10.6954 21.4969 10.9372 21.4969C11.179 21.4969 11.5189 21.603 12.1963 21.8142C12.3728 21.8692 12.5691 21.9305 12.7898 21.9978C13.0876 22.089 13.3892 22.1328 13.6862 22.1328C14.6947 22.1328 15.6513 21.626 16.2297 20.7319L16.3784 20.5014C16.8658 19.7462 17.1105 19.3671 17.3439 19.1618C17.5545 18.9765 17.8671 18.8389 18.6169 18.5178C18.7547 18.4586 18.9046 18.3947 19.0676 18.324C20.3251 17.78 21.0606 16.4915 20.8984 15.1187C20.871 14.887 20.8453 14.6808 20.8225 14.4955C20.7345 13.7846 20.6899 13.4276 20.732 13.1866C20.7741 12.9459 20.9363 12.6256 21.2602 11.9875C21.3445 11.8218 21.438 11.6369 21.542 11.4286C22.1587 10.1947 21.903 8.7298 20.906 7.78376L20.9047 7.78504ZM15.078 9.58043L10.6048 14.1036C10.43 14.2804 10.2012 14.3686 9.97208 14.3686C9.74292 14.3686 9.51419 14.2804 9.33937 14.1036L6.93363 11.6714C6.58442 11.3183 6.58442 10.7454 6.93363 10.3923C7.28284 10.0392 7.84942 10.0392 8.19864 10.3923L9.97166 12.1851L13.8122 8.30172C14.1614 7.94861 14.728 7.94861 15.0772 8.30172C15.4264 8.65484 15.4272 9.22732 15.078 9.58043Z" fill="#2F82FF"/>
</svg>
