<svg width="21" height="24" viewBox="0 0 21 24" fill="none" xmlns="http://www.w3.org/2000/svg">
<path d="M19.7506 5.43433L11.4833 0.503958C10.8109 0.102847 9.9704 0.102847 9.29802 0.503958L1.03066 5.43433C0.391405 5.81593 0 6.50233 0 7.2436V16.2972C0 17.0495 0.403061 17.7444 1.05765 18.1224L9.32501 22.8881C9.9839 23.2679 10.7974 23.2679 11.4563 22.8881L19.7236 18.1224C20.3782 17.745 20.7813 17.0495 20.7813 16.2972V7.2436C20.7813 6.50233 20.3899 5.81593 19.7506 5.43433ZM8.34527 14.363H6.8729L4.93551 11.3193H4.91956V14.363H3.45516V8.80781H4.88029L6.85695 11.9533L6.8729 11.9454V8.80781H8.34527V14.363ZM13.0225 10.13H10.6287V11.1785H12.5894V12.4928H10.6287V14.363H9.17961V8.80781H13.0225V10.13ZM17.6684 10.13H16.2746V14.363H14.739V10.13H13.3452V8.80781H17.6684V10.13Z" fill="#2F82FF"/>
</svg>
