<svg width="20" height="24" viewBox="0 0 20 24" fill="none" xmlns="http://www.w3.org/2000/svg">
<path d="M19.6801 20.2225L18.942 8.8817C18.8734 7.99628 18.1313 7.30282 17.2524 7.30282H14.6969V5.54242C14.6969 2.80952 12.4633 0.585938 9.718 0.585938C8.38385 0.585938 7.13236 1.10048 6.19395 2.03422C5.25555 2.96841 4.73912 4.21427 4.73912 5.54242V7.30282H2.18364C1.26973 7.30282 0.527216 8.01195 0.493983 8.9174L0.00204099 20.2887C-0.0303179 21.255 0.323006 22.1744 0.997294 22.8775C1.66983 23.5788 2.57151 23.9649 3.53615 23.9649H16.115C17.0665 23.9649 18.0027 23.5579 18.6823 22.8492C19.3815 22.154 19.7449 21.1963 19.6801 20.2225ZM13.2661 12.9092L7.36412 18.7846C7.05102 19.0968 6.49743 19.0972 6.1839 18.7846C5.85812 18.4612 5.85812 17.9336 6.1839 17.6097L12.0859 11.7343C12.2424 11.578 12.4523 11.4923 12.6762 11.4923C12.9001 11.4923 13.11 11.5785 13.2665 11.7343C13.5919 12.0577 13.5914 12.5853 13.2661 12.9092ZM13.0855 18.4825C12.6128 18.9531 11.7881 18.9527 11.3149 18.4825C10.8265 17.9963 10.8265 17.2053 11.3149 16.7195C11.5515 16.484 11.8659 16.3543 12.2 16.3543C12.5341 16.3543 12.8485 16.484 13.0851 16.7195C13.5735 17.2053 13.5739 17.9963 13.0855 18.4825ZM6.27179 12.0669C6.50792 11.8318 6.82233 11.7021 7.15685 11.7021C7.49137 11.7021 7.80534 11.8318 8.0419 12.0669C8.53035 12.5531 8.53035 13.3441 8.0419 13.8299C7.56877 14.3009 6.74449 14.3005 6.27135 13.8299C6.03478 13.5948 5.90447 13.2814 5.90447 12.9488C5.90447 12.6163 6.03522 12.3024 6.27179 12.0669ZM6.92027 5.51194C6.92027 3.95918 8.18927 2.6959 9.74862 2.6959C11.308 2.6959 12.5774 3.93263 12.5774 5.51194V7.27235H6.92027V5.51194Z" fill="#2F82FF"/>
</svg>
