<svg width="25" height="20" viewBox="0 0 25 20" fill="none" xmlns="http://www.w3.org/2000/svg">
<path d="M3.57644 4.58861C3.60682 4.30002 3.49542 4.01649 3.28278 3.81903L1.09054 1.1763V0.78125H7.90023L13.1657 12.325L17.7932 0.78125H24.284V1.1763L22.4106 2.97355C22.2486 3.09507 22.1677 3.2976 22.2031 3.50012V16.7093C22.1677 16.9118 22.2486 17.1144 22.4106 17.2359L24.2434 19.0334V19.4282H15.0339V19.0334L16.9325 17.1904C17.1199 17.0031 17.1199 16.9474 17.1199 16.6638V5.98612L11.8442 19.3827H11.1304L4.98903 5.98612V14.9627C4.9384 15.3425 5.06493 15.7222 5.3282 15.9956L7.79387 18.9877V19.3827H0.796875V18.9877L3.26254 15.9956C3.52581 15.7222 3.64226 15.3374 3.58151 14.9627V4.58861H3.57644Z" fill="#F3F4F6"/>
</svg>
