<svg width="24" height="24" viewBox="0 0 24 24" fill="none" xmlns="http://www.w3.org/2000/svg">
<path d="M17.002 9.12087C17.002 7.76273 16.4963 6.46022 15.5959 5.49987C14.6956 4.53952 13.4745 4 12.2012 4C10.928 4 9.70686 4.53952 8.80653 5.49987C7.9062 6.46022 7.40041 7.76273 7.40041 9.12087C7.40041 15.0952 5 16.8022 5 16.8022H19.4024C19.4024 16.8022 17.002 15.0952 17.002 9.12087Z" stroke="#6C757D" stroke-width="1.8" stroke-linecap="round" stroke-linejoin="round"/>
<path d="M14.2294 19.2026C13.9989 19.4452 13.6681 19.6465 13.2698 19.7863C12.8717 19.9263 12.4203 20 11.9608 20C11.5013 20 11.0499 19.9263 10.6518 19.7863C10.2537 19.6465 9.92268 19.4452 9.69214 19.2026" stroke="#6C757D" stroke-width="1.8" stroke-linecap="round" stroke-linejoin="round"/>
</svg>
