<svg width="20" height="20" viewBox="0 0 20 20" fill="none" xmlns="http://www.w3.org/2000/svg">
<path d="M16.6682 4.7288H13.9515V3H12.9636V4.7288H7.03631V3H6.04842V4.7288H3.33174C3.1353 4.72903 2.94698 4.80716 2.80808 4.94606C2.66918 5.08496 2.59105 5.27328 2.59082 5.46972V15.8425C2.59105 16.039 2.66918 16.2273 2.80808 16.3662C2.94698 16.5051 3.1353 16.5832 3.33174 16.5834H16.6682C16.8646 16.5832 17.053 16.5051 17.1919 16.3662C17.3308 16.2273 17.4089 16.039 17.4091 15.8425V5.46972C17.4089 5.27328 17.3308 5.08496 17.1919 4.94606C17.053 4.80716 16.8646 4.72903 16.6682 4.7288ZM16.4212 15.5956H3.57871V5.71669H6.04842V6.95155H7.03631V5.71669H12.9636V6.95155H13.9515V5.71669H16.4212V15.5956Z" fill="#999999"/>
<path d="M6.54282 8.68036H5.55493V9.66825H6.54282V8.68036Z" fill="#999999"/>
<path d="M9.25937 8.68036H8.27148V9.66825H9.25937V8.68036Z" fill="#999999"/>
<path d="M11.7289 8.68036H10.741V9.66825H11.7289V8.68036Z" fill="#999999"/>
<path d="M14.4454 8.68036H13.4575V9.66825H14.4454V8.68036Z" fill="#999999"/>
<path d="M6.54282 10.9032H5.55493V11.8911H6.54282V10.9032Z" fill="#999999"/>
<path d="M9.25937 10.9032H8.27148V11.8911H9.25937V10.9032Z" fill="#999999"/>
<path d="M11.7289 10.9032H10.741V11.8911H11.7289V10.9032Z" fill="#999999"/>
<path d="M14.4454 10.9032H13.4575V11.8911H14.4454V10.9032Z" fill="#999999"/>
<path d="M6.54282 13.1259H5.55493V14.1138H6.54282V13.1259Z" fill="#999999"/>
<path d="M9.25937 13.1259H8.27148V14.1138H9.25937V13.1259Z" fill="#999999"/>
<path d="M11.7289 13.1259H10.741V14.1138H11.7289V13.1259Z" fill="#999999"/>
<path d="M14.4454 13.1259H13.4575V14.1138H14.4454V13.1259Z" fill="#999999"/>
</svg>
