<svg width="24" height="24" viewBox="0 0 24 24" fill="none" xmlns="http://www.w3.org/2000/svg">
<path d="M2.21021 2.11499H22.0237V21.9285H2.21021V2.11499Z" fill="white" fill-opacity="0.01"/>
<path d="M6.10612 17.6924C5.11409 16.6441 4.43007 15.3663 4.09227 14.0015C4.62279 13.81 5.09109 13.4373 5.39517 12.9106C6.07908 11.726 5.67322 10.2113 4.48864 9.52741C4.41698 9.48603 4.34412 9.44864 4.27031 9.41517C4.44375 8.89501 4.67188 8.38446 4.95672 7.8911C5.3882 7.14376 5.91889 6.48939 6.52256 5.93503C6.5325 5.94095 6.54249 5.94682 6.55254 5.95262C7.73712 6.63654 9.25184 6.23067 9.93575 5.04609C10.1321 4.70602 10.2386 4.33874 10.2627 3.97176C11.5334 3.68032 12.8747 3.68761 14.1731 4.02405C14.1264 4.92416 14.5744 5.81769 15.4085 6.29926C16.2426 6.78083 17.2405 6.72207 17.9966 6.23156C18.9372 7.18778 19.6142 8.34577 19.9971 9.59193C19.6913 9.79628 19.4265 10.0722 19.2302 10.4122C18.5463 11.5968 18.9521 13.1115 20.1367 13.7955C20.1468 13.8013 20.1569 13.807 20.1669 13.8126C19.9887 14.6126 19.6873 15.3994 19.2559 16.1467C18.971 16.6401 18.6429 17.0929 18.2792 17.5032C18.2133 17.456 18.1445 17.4116 18.0728 17.3702C16.8882 16.6863 15.3735 17.0922 14.6896 18.2768C14.3855 18.8034 14.2969 19.3954 14.3963 19.9505C13.0454 20.3404 11.5968 20.3869 10.193 20.052C10.4158 19.0275 9.96705 17.9334 9.01044 17.3811C8.05382 16.8288 6.88194 16.9872 6.10612 17.6924Z" stroke="#6C757D" stroke-width="1.8" stroke-linejoin="round"/>
<path d="M12.1168 14.9108C13.7126 14.9108 15.0062 13.6171 15.0062 12.0213C15.0062 10.4255 13.7126 9.13184 12.1168 9.13184C10.5209 9.13184 9.22729 10.4255 9.22729 12.0213C9.22729 13.6171 10.5209 14.9108 12.1168 14.9108Z" stroke="#6C757D" stroke-width="1.8" stroke-linejoin="round"/>
</svg>
