<svg width="20" height="20" viewBox="0 0 20 20" fill="none" xmlns="http://www.w3.org/2000/svg">
<path d="M18.6396 11.3221C18.1631 10.5062 18.1631 9.49476 18.6396 8.67885C19.514 7.18189 18.7205 5.26462 17.0438 4.82632C16.1289 4.58582 15.4142 3.8733 15.1737 2.95625C14.7354 1.27948 12.8159 0.483796 11.3211 1.36039C10.5052 1.8369 9.49378 1.8369 8.67787 1.36039C7.18091 0.486043 5.26364 1.27948 4.82534 2.95625C4.58484 3.87106 3.87232 4.58582 2.95527 4.82632C1.2785 5.26462 0.485064 7.18189 1.35941 8.67885C1.83592 9.49476 1.83592 10.5062 1.35941 11.3221C0.485064 12.8191 1.2785 14.7364 2.95527 15.1747C3.87008 15.4152 4.58484 16.1277 4.82534 17.0447C5.26364 18.7215 7.18316 19.5172 8.67787 18.6406C9.49378 18.1641 10.5052 18.1641 11.3211 18.6406C12.8181 19.5149 14.7354 18.7215 15.1737 17.0447C15.4142 16.1299 16.1267 15.4152 17.0438 15.1747C18.7205 14.7364 19.5162 12.8168 18.6396 11.3221ZM13.9127 8.46307L9.72305 12.6528C9.5702 12.8056 9.36791 12.8843 9.16787 12.8843C8.96782 12.8843 8.76553 12.8078 8.61269 12.6528L6.08854 10.1286C5.78061 9.82067 5.78061 9.32394 6.08854 9.016C6.39647 8.70807 6.89321 8.70807 7.20114 9.016L9.17011 10.985L12.8024 7.35272C13.1103 7.04478 13.607 7.04478 13.915 7.35272C14.2229 7.66065 14.2229 8.15739 13.915 8.46532L13.9127 8.46307Z" fill="#fff"/>
</svg>
