<svg width="20" height="20" viewBox="0 0 20 20" fill="none" xmlns="http://www.w3.org/2000/svg">
<path fill-rule="evenodd" clip-rule="evenodd" d="M4.16667 5.05554C3.79725 5.05554 3.5 5.3528 3.5 5.72221V15.8333C3.5 16.2027 3.79725 16.5 4.16667 16.5H15.8333C16.2027 16.5 16.5 16.2027 16.5 15.8333V5.72221C16.5 5.3528 16.2027 5.05554 15.8333 5.05554H4.16667ZM2.5 5.72221C2.5 4.80051 3.24497 4.05554 4.16667 4.05554H15.8333C16.755 4.05554 17.5 4.80051 17.5 5.72221V15.8333C17.5 16.755 16.755 17.5 15.8333 17.5H4.16667C3.24497 17.5 2.5 16.755 2.5 15.8333V5.72221Z" fill="#999999"/>
<path fill-rule="evenodd" clip-rule="evenodd" d="M6.88867 2.5C7.16481 2.5 7.38867 2.72386 7.38867 3V5.7611C7.38867 6.03724 7.16481 6.2611 6.88867 6.2611C6.61253 6.2611 6.38867 6.03724 6.38867 5.7611V3C6.38867 2.72386 6.61253 2.5 6.88867 2.5Z" fill="#999999"/>
<path fill-rule="evenodd" clip-rule="evenodd" d="M13.1113 2.65552C13.3875 2.65552 13.6113 2.87938 13.6113 3.15552V5.91662C13.6113 6.19276 13.3875 6.41662 13.1113 6.41662C12.8352 6.41662 12.6113 6.19276 12.6113 5.91662V3.15552C12.6113 2.87938 12.8352 2.65552 13.1113 2.65552Z" fill="#999999"/>
<path fill-rule="evenodd" clip-rule="evenodd" d="M2.5 8.44446C2.5 8.16832 2.72386 7.94446 3 7.94446H17C17.2761 7.94446 17.5 8.16832 17.5 8.44446C17.5 8.7206 17.2761 8.94446 17 8.94446H3C2.72386 8.94446 2.5 8.7206 2.5 8.44446Z" fill="#999999"/>
</svg>
