<svg width="24" height="24" viewBox="0 0 24 24" fill="none" xmlns="http://www.w3.org/2000/svg">
<path d="M12 21.5C14.5196 21.5 16.9359 20.4991 18.7175 18.7175C20.4991 16.9359 21.5 14.5196 21.5 12C21.5 9.48044 20.4991 7.06408 18.7175 5.28249C16.9359 3.50089 14.5196 2.5 12 2.5C9.48044 2.5 7.06408 3.50089 5.28249 5.28249C3.50089 7.06408 2.5 9.48044 2.5 12C2.5 14.5196 3.50089 16.9359 5.28249 18.7175C7.06408 20.4991 9.48044 21.5 12 21.5Z" stroke="black" stroke-width="1.5" stroke-miterlimit="10"/>
<path d="M4.12506 17.305C5.83006 16.268 18.1711 16.268 19.8751 17.305M3.75806 7.29004C5.39306 8.39504 18.6111 8.39504 20.2461 7.29004" stroke="black" stroke-width="1.5" stroke-miterlimit="10"/>
<path d="M2.5 12.406H21.5M12.003 21.5C14.513 21.5 16.548 17.247 16.548 12C16.548 6.753 14.513 2.5 12.003 2.5C9.493 2.5 7.457 6.753 7.457 12C7.457 17.247 9.492 21.5 12.003 21.5Z" stroke="black" stroke-width="1.5" stroke-miterlimit="10"/>
</svg>
