<svg width="24" height="24" viewBox="0 0 24 24" fill="none" xmlns="http://www.w3.org/2000/svg">
<path d="M21.6974 10.6088L14.2999 4.16251C14.0238 3.92154 13.783 3.71201 13.5706 3.55175C13.3451 3.38125 13.1047 3.2297 12.8185 3.13384C12.2875 2.95539 11.7139 2.95539 11.1828 3.13384C10.8966 3.23008 10.6566 3.38125 10.4307 3.55175C10.2183 3.71239 9.97756 3.92192 9.7014 4.16251L2.30362 10.6088C2.00473 10.8695 1.91268 11.3048 2.0897 11.6716C2.23803 11.9781 2.55332 12.1641 2.88911 12.1641H3.24949H3.30428V18.2952C3.30428 18.7222 3.30428 19.0905 3.32664 19.3947C3.35012 19.7152 3.40229 20.035 3.54391 20.3472C3.80405 20.9208 4.25686 21.3812 4.8211 21.6453C4.90346 21.6839 4.98657 21.7157 5.07005 21.7423C5.29702 21.815 5.52734 21.8483 5.75766 21.8662C6.05692 21.8889 6.41917 21.8889 6.83918 21.8889H8.09513C8.79727 21.8889 9.36635 21.3103 9.36635 20.5965V16.8138C9.36635 16.6095 9.36636 16.4103 9.37865 16.2413C9.39244 16.056 9.42449 15.837 9.52586 15.6131C9.69916 15.2308 10.001 14.9239 10.3771 14.7477C10.5973 14.6443 10.8131 14.6117 10.995 14.5981C11.1612 14.5852 11.3569 14.5856 11.5581 14.5856H12.4786C12.6795 14.5856 12.8755 14.5856 13.0418 14.5981C13.224 14.6121 13.4394 14.6447 13.6597 14.7477C14.0357 14.9239 14.3376 15.2308 14.5109 15.6131C14.6126 15.837 14.6447 16.0564 14.6581 16.2413C14.6704 16.4103 14.6704 16.6092 14.6704 16.8138V20.5965C14.6704 21.3103 15.2395 21.8889 15.9416 21.8889H17.1607C17.5807 21.8889 17.9429 21.8889 18.2422 21.8662C18.4725 21.8487 18.7025 21.815 18.9294 21.7426C19.0129 21.7157 19.0964 21.6843 19.1791 21.6453C19.7434 21.3808 20.1958 20.9208 20.4559 20.3472C20.5976 20.035 20.6497 19.7152 20.6732 19.3947C20.6956 19.0905 20.6956 18.7222 20.6956 18.2952V12.1641H21.1104C21.4462 12.1641 21.7615 11.9785 21.9098 11.6723C22.0876 11.306 21.9955 10.8699 21.6962 10.6088H21.6974Z" fill="#9FB1CC"/>
</svg>
