<svg width="20" height="20" viewBox="0 0 20 20" fill="none" xmlns="http://www.w3.org/2000/svg">
<circle cx="10" cy="10" r="7.5" fill="#FFB800"/>
<g clip-path="url(#clip0_43_722)">
<path d="M15.5 8.42947C15.5 8.05282 15.1833 7.74796 14.7919 7.74796C14.4006 7.74796 14.0839 8.05282 14.0839 8.42947C14.0839 8.58682 14.1411 8.7304 14.2351 8.84546C14.1758 9.00871 13.6026 10.4681 12.2284 10.4445C12.2284 10.4445 10.4015 10.5055 10.469 7.69683H10.4639C10.6151 7.57095 10.7121 7.38803 10.7121 7.18151C10.7121 6.80486 10.3954 6.5 10.0041 6.5C9.61276 6.5 9.29602 6.80486 9.29602 7.18151C9.29602 7.38803 9.39309 7.57095 9.54431 7.69584H9.5392C9.60663 10.5055 7.77977 10.4445 7.77977 10.4445C6.38919 10.4691 5.81906 8.97429 5.77104 8.84054C5.86197 8.72647 5.91715 8.58486 5.91715 8.42947C5.91715 8.05282 5.60041 7.74796 5.20908 7.74796C4.81776 7.74796 4.5 8.05282 4.5 8.42947C4.5 8.77859 4.77485 9.06378 5.12632 9.10312L6.09084 12.6267C6.09084 12.6267 5.66886 13.4135 6.54143 13.5C6.54143 13.5 8.66664 13.1873 10.002 13.2305C11.3375 13.1873 13.4627 13.5 13.4627 13.5C14.3352 13.4135 13.9132 12.6267 13.9132 12.6267L14.8788 9.10214C15.2282 9.05985 15.499 8.77662 15.499 8.42947H15.5Z" fill="white"/>
</g>
<defs>
<clipPath id="clip0_43_722">
<rect width="11" height="7" fill="white" transform="translate(4.5 6.5)"/>
</clipPath>
</defs>
</svg>
