<svg width="24" height="24" viewBox="0 0 24 24" fill="none" xmlns="http://www.w3.org/2000/svg">
<path d="M18.3281 16.7842C18.3281 17.7179 17.6194 18.4773 16.7479 18.4773H7.00212C6.13065 18.4773 5.42191 17.7179 5.42191 16.7842V6.34232C5.42191 5.4086 6.13065 4.64924 7.00212 4.64924H11.8055L13.2091 3.12576H7.00212C5.34671 3.12576 4 4.569 4 6.34232V16.7842C4 18.5579 5.34671 20.0008 7.00212 20.0008H16.7479C18.4033 20.0008 19.75 18.5579 19.75 16.7842V11.4483L18.3281 12.9718V16.7842Z" fill="#00A3FF"/>
<path d="M21.1994 2.78158C20.6658 2.28421 19.99 2 19.243 2C18.5316 2 17.8202 2.28421 17.3222 2.78158L16.6461 3.46578L15.2353 4.89318L14.5836 5.55264L13.1608 6.97369L10.7065 9.42501C9.28366 10.8461 8.46554 12.7645 8.50111 14.7895C8.50111 15.1803 8.82125 15.5 9.21252 15.5C11.24 15.5 13.1608 14.7184 14.5836 13.2974L17.038 10.8461L18.4252 9.38948L18.8501 8.96507L20.2793 7.53767L21.1997 6.61843C22.2668 5.55264 22.2668 3.84737 21.1997 2.78158H21.1994ZM20.1678 5.62369L20.1577 5.63352L18.8498 6.93975L13.5162 12.2668C12.5558 13.226 11.2753 13.8655 9.92361 14.0076C10.1015 12.6576 10.7062 11.3786 11.6665 10.4194L17.1999 4.89286L18.3185 3.776C18.3496 3.74682 18.382 3.71986 18.415 3.6948C18.9467 3.28878 19.6994 3.37887 20.1681 3.84705C20.6306 4.37995 20.6306 5.126 20.1681 5.62337L20.1678 5.62369Z" fill="#00A3FF"/>
</svg>
