<svg width="24" height="24" viewBox="0 0 24 24" fill="none" xmlns="http://www.w3.org/2000/svg">
<path d="M19.5875 5.07434L19.5893 5.07188C20.2249 4.28764 20.1111 3.17817 19.3288 2.54488C18.96 2.24481 18.4736 2.09999 17.996 2.1454C17.5134 2.19203 17.0756 2.42399 16.7634 2.79955L11.8204 8.78138L11.8042 8.80102L14.1569 11.6533L19.5869 5.07434H19.5875Z" fill="#2F82FF"/>
<path d="M8.64132 3.80044C8.64132 2.80817 7.82661 2 6.8247 2C5.8228 2 5 2.80756 5 3.80044V12.5394C5.00746 13.925 5.82528 15.2069 7.08342 15.8046C7.57722 16.039 8.09652 16.155 8.6208 16.155C9.49459 16.155 10.3827 15.8335 11.1912 15.2039L11.2161 15.1848L8.64878 12.0767L8.64132 3.80044Z" fill="#2F82FF"/>
<path d="M11.3403 8.96287C10.5859 8.18047 9.84773 8.00681 9.13377 7.83928L9.09521 7.83008V11.9225L16.7634 21.2064C17.1229 21.6414 17.6472 21.8667 18.1764 21.8667C18.5819 21.8667 18.9905 21.7341 19.3288 21.4623C19.7057 21.1573 19.9408 20.7265 19.9899 20.2503C20.0397 19.7723 19.8967 19.3047 19.5876 18.9328L11.3403 8.96287Z" fill="#2F82FF"/>
<path d="M8.6463 16.5994L8.6407 20.2082C8.6407 21.1962 7.82226 22.0001 6.81662 22.0001C5.81098 22.0001 5 21.2091 5 20.1996V14.3706C5.40487 15.1579 6.06161 15.8127 6.88752 16.2054C7.43853 16.4668 8.02189 16.6 8.6208 16.6C8.6295 16.6 8.63759 16.6 8.6463 16.5994Z" fill="#2F82FF"/>
</svg>
