<svg width="24" height="24" viewBox="0 0 24 24" fill="none" xmlns="http://www.w3.org/2000/svg">
<rect x="3" y="8.625" width="5.54167" height="8.70833" rx="2.77083" fill="#2F82FF"/>
<rect x="16.4583" y="8.625" width="5.54167" height="8.70833" rx="2.77083" fill="#2F82FF"/>
<mask id="path-3-inside-1_387_1378" fill="white">
<path d="M4.97925 9.02083C4.97925 4.86719 8.34644 1.5 12.5001 1.5V1.5C16.6537 1.5 20.0209 4.86719 20.0209 9.02083V9.41667H4.97925V9.02083Z"/>
</mask>
<path d="M2.97925 9.02083C2.97925 3.76262 7.24187 -0.5 12.5001 -0.5H12.5001C17.7583 -0.5 22.0209 3.76262 22.0209 9.02083L18.0209 9.02083C18.0209 5.97176 15.5492 3.5 12.5001 3.5C9.45101 3.5 6.97925 5.97176 6.97925 9.02083L2.97925 9.02083ZM20.0209 9.41667H4.97925H20.0209ZM2.97925 9.41667V9.02083C2.97925 3.76262 7.24187 -0.5 12.5001 -0.5L12.5001 3.5C9.45101 3.5 6.97925 5.97176 6.97925 9.02083V9.41667H2.97925ZM12.5001 -0.5C17.7583 -0.5 22.0209 3.76262 22.0209 9.02083V9.41667H18.0209V9.02083C18.0209 5.97176 15.5492 3.5 12.5001 3.5L12.5001 -0.5Z" fill="#2F82FF" mask="url(#path-3-inside-1_387_1378)"/>
<path fill-rule="evenodd" clip-rule="evenodd" d="M12.8958 21.2917H14.0208C17.3345 21.2917 20.0208 18.6054 20.0208 15.2917V13.375L18.0208 13.375V15.2917C18.0208 17.5008 16.2299 19.2917 14.0208 19.2917H12.8958V21.2917Z" fill="#2F82FF"/>
<circle cx="13.2916" cy="20.5" r="1.58333" fill="#2F82FF"/>
</svg>
