<svg width="24" height="24" viewBox="0 0 24 24" fill="none" xmlns="http://www.w3.org/2000/svg">
<path d="M21 20V7C21 7 20 5 16.5 5C13 5 12 8 12 8C12 8 11 5 7.5 5C4 5 3 7 3 7V20C3 20 4 18 7.5 18C11 18 12 20 12 20C12 20 13 18 16.5 18C20 18 21 20 21 20Z" fill="#2F82FF"/>
<path d="M21 7H22C22 6.84475 21.9639 6.69164 21.8944 6.55279L21 7ZM21 20L20.1056 20.4472C20.313 20.862 20.7784 21.0798 21.2298 20.9732C21.6811 20.8667 22 20.4638 22 20H21ZM3 7L2.10557 6.55279C2.03615 6.69164 2 6.84475 2 7H3ZM3 20H2C2 20.4638 2.31888 20.8667 2.77025 20.9732C3.22162 21.0798 3.68702 20.862 3.89443 20.4472L3 20ZM12 20L11.1056 20.4472C11.275 20.786 11.6212 21 12 21C12.3788 21 12.725 20.786 12.8944 20.4472L12 20ZM12 8L11.0513 8.31623C11.1874 8.72457 11.5696 9 12 9C12.4304 9 12.8126 8.72457 12.9487 8.31623L12 8ZM20 7V20H22V7H20ZM2 7V20H4V7H2ZM21 20C21.8944 19.5528 21.8941 19.5522 21.8938 19.5515C21.8937 19.5513 21.8934 19.5507 21.8932 19.5502C21.8927 19.5494 21.8922 19.5485 21.8918 19.5475C21.8908 19.5456 21.8898 19.5436 21.8887 19.5415C21.8865 19.5372 21.884 19.5324 21.8812 19.5272C21.8757 19.5167 21.869 19.5043 21.861 19.49C21.8452 19.4616 21.8244 19.4259 21.7982 19.3841C21.7459 19.3004 21.672 19.1917 21.5731 19.0668C21.3752 18.8168 21.0765 18.5009 20.6507 18.1913C19.787 17.5631 18.4547 17 16.5 17V19C18.0453 19 18.963 19.4369 19.4743 19.8087C19.736 19.9991 19.9061 20.1832 20.005 20.3082C20.0545 20.3708 20.0861 20.4183 20.1022 20.4441C20.1102 20.4569 20.1143 20.4642 20.1148 20.465C20.115 20.4655 20.1144 20.4643 20.1128 20.4613C20.112 20.4599 20.111 20.458 20.1098 20.4556C20.1092 20.4544 20.1086 20.4532 20.1079 20.4518C20.1075 20.4511 20.1071 20.4503 20.1068 20.4496C20.1066 20.4492 20.1063 20.4486 20.1062 20.4484C20.1059 20.4478 20.1056 20.4472 21 20ZM16.5 17C14.5453 17 13.213 17.5631 12.3493 18.1913C11.9235 18.5009 11.6248 18.8168 11.4269 19.0668C11.328 19.1917 11.2541 19.3004 11.2018 19.3841C11.1756 19.4259 11.1548 19.4616 11.139 19.49C11.131 19.5043 11.1243 19.5167 11.1188 19.5272C11.116 19.5324 11.1135 19.5372 11.1113 19.5415C11.1102 19.5436 11.1092 19.5456 11.1082 19.5475C11.1078 19.5485 11.1073 19.5494 11.1068 19.5502C11.1066 19.5507 11.1063 19.5513 11.1062 19.5515C11.1059 19.5522 11.1056 19.5528 12 20C12.8944 20.4472 12.8941 20.4478 12.8938 20.4484C12.8937 20.4486 12.8934 20.4492 12.8932 20.4496C12.8929 20.4503 12.8925 20.4511 12.8921 20.4518C12.8914 20.4532 12.8908 20.4544 12.8902 20.4556C12.889 20.458 12.888 20.4599 12.8872 20.4613C12.8856 20.4643 12.885 20.4655 12.8852 20.465C12.8857 20.4642 12.8898 20.4569 12.8978 20.4441C12.9139 20.4183 12.9455 20.3708 12.995 20.3082C13.0939 20.1832 13.264 19.9991 13.5257 19.8087C14.037 19.4369 14.9547 19 16.5 19V17ZM12 20C12.8944 19.5528 12.8941 19.5522 12.8938 19.5515C12.8937 19.5513 12.8934 19.5507 12.8932 19.5502C12.8927 19.5494 12.8922 19.5485 12.8918 19.5475C12.8908 19.5456 12.8898 19.5436 12.8887 19.5415C12.8865 19.5372 12.884 19.5324 12.8812 19.5272C12.8757 19.5167 12.869 19.5043 12.861 19.49C12.8452 19.4616 12.8244 19.4259 12.7982 19.3841C12.7459 19.3004 12.672 19.1917 12.5731 19.0668C12.3752 18.8168 12.0765 18.5009 11.6507 18.1913C10.787 17.5631 9.45471 17 7.5 17V19C9.04529 19 9.96303 19.4369 10.4743 19.8087C10.736 19.9991 10.9061 20.1832 11.005 20.3082C11.0545 20.3708 11.0861 20.4183 11.1022 20.4441C11.1102 20.4569 11.1143 20.4642 11.1148 20.465C11.115 20.4655 11.1144 20.4643 11.1128 20.4613C11.112 20.4599 11.111 20.458 11.1098 20.4556C11.1092 20.4544 11.1086 20.4532 11.1079 20.4518C11.1075 20.4511 11.1071 20.4503 11.1068 20.4496C11.1066 20.4492 11.1063 20.4486 11.1062 20.4484C11.1059 20.4478 11.1056 20.4472 12 20ZM7.5 17C5.54529 17 4.21303 17.5631 3.34933 18.1913C2.92351 18.5009 2.62482 18.8168 2.42689 19.0668C2.32798 19.1917 2.25409 19.3004 2.20181 19.3841C2.17565 19.4259 2.15484 19.4616 2.13896 19.49C2.13102 19.5043 2.1243 19.5167 2.11875 19.5272C2.11598 19.5324 2.1135 19.5372 2.11131 19.5415C2.11021 19.5436 2.10918 19.5456 2.10823 19.5475C2.10775 19.5485 2.10729 19.5494 2.10685 19.5502C2.10663 19.5507 2.10631 19.5513 2.1062 19.5515C2.10588 19.5522 2.10557 19.5528 3 20C3.89443 20.4472 3.89412 20.4478 3.89383 20.4484C3.89373 20.4486 3.89343 20.4492 3.89324 20.4496C3.89286 20.4503 3.89249 20.4511 3.89214 20.4518C3.89143 20.4532 3.89077 20.4544 3.89017 20.4556C3.88896 20.458 3.88797 20.4599 3.8872 20.4613C3.88565 20.4643 3.88497 20.4655 3.88521 20.465C3.88569 20.4642 3.88978 20.4569 3.8978 20.4441C3.91388 20.4183 3.94546 20.3708 3.99498 20.3082C4.09393 20.1832 4.26399 19.9991 4.52567 19.8087C5.03697 19.4369 5.95471 19 7.5 19V17ZM21 7C21.8944 6.55279 21.8941 6.55217 21.8938 6.55154C21.8937 6.55132 21.8934 6.55068 21.8932 6.55024C21.8927 6.54937 21.8922 6.54845 21.8918 6.54751C21.8908 6.54563 21.8898 6.54362 21.8887 6.54148C21.8865 6.53721 21.884 6.53244 21.8812 6.52719C21.8757 6.5167 21.869 6.50427 21.861 6.49004C21.8452 6.4616 21.8244 6.42592 21.7982 6.38406C21.7459 6.30041 21.672 6.19174 21.5731 6.0668C21.3752 5.81678 21.0765 5.50095 20.6507 5.19126C19.787 4.56311 18.4547 4 16.5 4V6C18.0453 6 18.963 6.43689 19.4743 6.80874C19.736 6.99905 19.9061 7.18322 20.005 7.3082C20.0545 7.37076 20.0861 7.41834 20.1022 7.44406C20.1102 7.4569 20.1143 7.46418 20.1148 7.46503C20.115 7.46546 20.1144 7.46426 20.1128 7.46133C20.112 7.45987 20.111 7.45797 20.1098 7.45562C20.1092 7.45445 20.1086 7.45316 20.1079 7.45176C20.1075 7.45106 20.1071 7.45033 20.1068 7.44957C20.1066 7.44919 20.1063 7.4486 20.1062 7.44841C20.1059 7.44782 20.1056 7.44721 21 7ZM16.5 4C14.4233 4 13.0435 4.90451 12.2003 5.82428C11.7865 6.27576 11.5054 6.72556 11.3266 7.06449C11.2367 7.2348 11.1712 7.37969 11.1267 7.48648C11.1044 7.53996 11.0873 7.58414 11.0749 7.61747C11.0687 7.63414 11.0637 7.64813 11.0598 7.65924C11.0578 7.66479 11.0561 7.66963 11.0547 7.67373C11.054 7.67577 11.0534 7.67764 11.0528 7.67931C11.0525 7.68015 11.0523 7.68094 11.052 7.68168C11.0519 7.68206 11.0517 7.68258 11.0517 7.68276C11.0515 7.68327 11.0513 7.68377 12 8C12.9487 8.31623 12.9485 8.3167 12.9484 8.31717C12.9483 8.31731 12.9482 8.31776 12.9481 8.31804C12.9479 8.3186 12.9477 8.31912 12.9476 8.31959C12.9472 8.32054 12.947 8.32132 12.9468 8.32193C12.9463 8.32314 12.9462 8.32367 12.9462 8.32355C12.9463 8.32331 12.9473 8.32045 12.9493 8.31515C12.9532 8.30453 12.961 8.28426 12.9729 8.25571C12.9967 8.19843 13.0368 8.10895 13.0953 7.99801C13.2133 7.77444 13.401 7.47424 13.6747 7.17572C14.2065 6.59549 15.0767 6 16.5 6V4ZM12 8C12.9487 7.68377 12.9485 7.68327 12.9483 7.68276C12.9483 7.68258 12.9481 7.68206 12.948 7.68168C12.9477 7.68094 12.9475 7.68015 12.9472 7.67931C12.9466 7.67764 12.946 7.67577 12.9453 7.67373C12.9439 7.66963 12.9422 7.66479 12.9402 7.65924C12.9363 7.64813 12.9313 7.63414 12.9251 7.61747C12.9127 7.58414 12.8956 7.53996 12.8733 7.48648C12.8288 7.37969 12.7633 7.2348 12.6734 7.06449C12.4946 6.72556 12.2135 6.27576 11.7997 5.82428C10.9565 4.90451 9.57669 4 7.5 4V6C8.92331 6 9.79346 6.59549 10.3253 7.17572C10.599 7.47424 10.7867 7.77444 10.9047 7.99801C10.9632 8.10895 11.0033 8.19843 11.0271 8.25571C11.039 8.28426 11.0468 8.30453 11.0507 8.31515C11.0527 8.32045 11.0537 8.32331 11.0538 8.32355C11.0538 8.32367 11.0537 8.32314 11.0532 8.32193C11.053 8.32132 11.0528 8.32054 11.0524 8.31959C11.0523 8.31912 11.0521 8.3186 11.0519 8.31804C11.0518 8.31776 11.0517 8.31731 11.0516 8.31717C11.0515 8.3167 11.0513 8.31623 12 8ZM7.5 4C5.54529 4 4.21303 4.56311 3.34933 5.19126C2.92351 5.50095 2.62482 5.81678 2.42689 6.0668C2.32798 6.19174 2.25409 6.30041 2.20181 6.38406C2.17565 6.42592 2.15484 6.4616 2.13896 6.49004C2.13102 6.50427 2.1243 6.5167 2.11875 6.52719C2.11598 6.53244 2.1135 6.53721 2.11131 6.54148C2.11021 6.54362 2.10918 6.54563 2.10823 6.54751C2.10775 6.54845 2.10729 6.54937 2.10685 6.55024C2.10663 6.55068 2.10631 6.55132 2.1062 6.55154C2.10588 6.55217 2.10557 6.55279 3 7C3.89443 7.44721 3.89412 7.44782 3.89383 7.44841C3.89373 7.4486 3.89343 7.44919 3.89324 7.44957C3.89286 7.45033 3.89249 7.45106 3.89214 7.45176C3.89143 7.45316 3.89077 7.45445 3.89017 7.45562C3.88896 7.45797 3.88797 7.45987 3.8872 7.46133C3.88565 7.46426 3.88497 7.46546 3.88521 7.46503C3.88569 7.46418 3.88978 7.4569 3.8978 7.44406C3.91388 7.41834 3.94546 7.37076 3.99498 7.3082C4.09393 7.18322 4.26399 6.99905 4.52567 6.80874C5.03697 6.43689 5.95471 6 7.5 6V4Z" fill="#2F82FF"/>
</svg>
