<svg width="24" height="24" viewBox="0 0 24 24" fill="none" xmlns="http://www.w3.org/2000/svg">
<path d="M20.9933 18.9534L20.3184 8.58469C20.2556 7.77516 19.5772 7.14114 18.7736 7.14114H16.4371V5.53163C16.4371 3.03299 14.395 1 11.885 1C10.6652 1 9.521 1.47044 8.66303 2.32415C7.80506 3.17826 7.3329 4.31733 7.3329 5.53163V7.14114H4.99647C4.16089 7.14114 3.48203 7.78949 3.45164 8.61733L3.00187 19.0139C2.97228 19.8974 3.29532 20.738 3.91181 21.3808C4.5267 22.022 5.35109 22.375 6.23305 22.375H17.7337C18.6037 22.375 19.4596 22.0029 20.0809 21.3549C20.7202 20.7193 21.0524 19.8437 20.9933 18.9534ZM15.129 12.267L9.7329 17.6388C9.44664 17.9242 8.9405 17.9246 8.65384 17.6388C8.35599 17.3431 8.35599 16.8607 8.65384 16.5646L14.0499 11.1928C14.1931 11.0499 14.385 10.9715 14.5897 10.9715C14.7944 10.9715 14.9863 11.0503 15.1294 11.1928C15.4268 11.4885 15.4268 11.9709 15.1294 12.267H15.129ZM14.9639 17.3626C14.5317 17.7928 13.7777 17.7924 13.3451 17.3626C12.8985 16.918 12.8985 16.1949 13.3451 15.7507C13.5614 15.5354 13.8488 15.4168 14.1543 15.4168C14.4597 15.4168 14.7472 15.5354 14.9635 15.7507C15.41 16.1949 15.41 16.918 14.9635 17.3626H14.9639ZM8.7342 11.4969C8.95009 11.2819 9.23755 11.1633 9.54339 11.1633C9.84924 11.1633 10.1363 11.2819 10.3526 11.4969C10.7992 11.9414 10.7992 12.6646 10.3526 13.1088C9.92001 13.5394 9.16638 13.539 8.7338 13.1088C8.51751 12.8938 8.39836 12.6073 8.39836 12.3032C8.39836 11.9991 8.51751 11.7126 8.7338 11.4973L8.7342 11.4969ZM9.3271 5.50377C9.3271 4.0841 10.4873 2.92911 11.913 2.92911C13.3387 2.92911 14.4993 4.05983 14.4993 5.50377V7.11328H9.3271V5.50377Z" fill="#2F82FF"/>
</svg>
