<svg width="24" height="24" viewBox="0 0 24 24" fill="none" xmlns="http://www.w3.org/2000/svg">
<path d="M21.7506 6.2312L13.4833 1.30083C12.8109 0.899722 11.9704 0.899722 11.298 1.30083L3.03066 6.2312C2.39141 6.61281 2 7.29921 2 8.04047V17.0941C2 17.8464 2.40306 18.5413 3.05765 18.9192L11.325 23.685C11.9839 24.0648 12.7974 24.0648 13.4563 23.685L21.7236 18.9192C22.3782 18.5419 22.7813 17.8464 22.7813 17.0941V8.04047C22.7813 7.29921 22.3899 6.61281 21.7506 6.2312ZM10.3453 15.1599H8.8729L6.93551 12.1162H6.91956V15.1599H5.45516V9.60468H6.88029L8.85695 12.7502L8.8729 12.7422V9.60468H10.3453V15.1599ZM15.0225 10.9269H12.6287V11.9754H14.5894V13.2897H12.6287V15.1599H11.1796V9.60468H15.0225V10.9269ZM19.6684 10.9269H18.2746V15.1599H16.739V10.9269H15.3452V9.60468H19.6684V10.9269Z" fill="#2F82FF"/>
</svg>
