<svg width="31" height="32" viewBox="0 0 31 32" fill="none" xmlns="http://www.w3.org/2000/svg">
<path d="M15.3217 30.6798C23.2314 30.6798 29.6435 24.1545 29.6435 16.1051C29.6435 8.05581 23.2314 1.53052 15.3217 1.53052C7.41208 1.53052 1 8.05581 1 16.1051C1 24.1545 7.41208 30.6798 15.3217 30.6798Z" stroke="#002863" stroke-width="2" stroke-miterlimit="10"/>
<path d="M3.44922 24.24C6.01901 22.6502 24.6238 22.6502 27.1935 24.24" stroke="#002863" stroke-width="2" stroke-miterlimit="10"/>
<path d="M2.89648 8.87573C5.36108 10.5725 25.2883 10.5725 27.7529 8.87573" stroke="#002863" stroke-width="2" stroke-miterlimit="10"/>
<path d="M15.3195 30.6798C19.1042 30.6798 22.1723 24.1545 22.1723 16.1051C22.1723 8.05581 19.1042 1.53052 15.3195 1.53052C11.5348 1.53052 8.4668 8.05581 8.4668 16.1051C8.4668 24.1545 11.5348 30.6798 15.3195 30.6798Z" stroke="#002863" stroke-width="2" stroke-miterlimit="10"/>
<path d="M1 16.7283H29.6435" stroke="#002863" stroke-width="2" stroke-miterlimit="10"/>
</svg>
