<svg width="32" height="32" viewBox="0 0 32 32" fill="none" xmlns="http://www.w3.org/2000/svg">
<path d="M16 0C7.16367 0 0 7.16367 0 16C0 24.8363 7.16367 32 16 32C24.8363 32 32 24.8363 32 16C32 7.16367 24.8363 0 16 0ZM16.0273 24.7708C14.8097 24.7708 13.816 23.7771 13.816 22.5595C13.816 21.3419 14.8097 20.3482 16.0273 20.3482C17.2449 20.3482 18.2386 21.3419 18.2386 22.5595C18.2386 23.7771 17.2449 24.7708 16.0273 24.7708ZM18.3347 9.77262L17.694 17.0794C17.6617 17.5279 17.4378 17.9447 17.0849 18.2331C16.7965 18.4893 16.4119 18.6177 15.9951 18.6177H15.835C15.0337 18.5538 14.3607 17.9125 14.2968 17.0794L13.656 9.77262C13.5921 9.16354 13.7838 8.555 14.2006 8.07429C14.6174 7.59358 15.162 7.30516 15.7711 7.24124C16.4119 7.17733 16.9887 7.36907 17.4694 7.78587C17.9502 8.17043 18.2386 8.74729 18.3025 9.35637C18.3664 9.51642 18.3664 9.64479 18.3347 9.77262Z" fill="#032863"/>
</svg>
