<svg width="30" height="25" viewBox="0 0 30 25" fill="none" xmlns="http://www.w3.org/2000/svg">
<path d="M29.2674 3.17229C28.3491 3.58798 27.3316 3.84241 26.3328 4.00993C26.8043 3.92927 27.4992 3.07925 27.7722 2.73182C28.194 2.20445 28.5477 1.60273 28.7462 0.957487C28.771 0.907853 28.7896 0.845811 28.74 0.802381C28.678 0.777564 28.6345 0.789985 28.5849 0.814802C27.4743 1.41041 26.3266 1.83859 25.1105 2.14259C25.0113 2.16741 24.9368 2.14253 24.8686 2.08049C24.7693 1.96881 24.67 1.85714 24.5646 1.77028C24.0496 1.33598 23.5036 0.988448 22.8832 0.740278C22.0705 0.405249 21.1771 0.268804 20.3023 0.324642C19.4461 0.38048 18.6085 0.622518 17.8516 1.01959C17.0947 1.41666 16.4122 1.9689 15.8724 2.63275C15.314 3.32142 14.9045 4.13422 14.6936 4.99661C14.4889 5.82797 14.5075 6.65285 14.6316 7.49042C14.6502 7.63312 14.6378 7.65202 14.5137 7.63341C9.73642 6.91992 5.78432 5.21357 2.57052 1.55307C2.43403 1.39176 2.35336 1.39177 2.24168 1.56549C0.833319 3.67493 1.51581 7.05641 3.27161 8.71915C3.50737 8.9425 3.74933 9.15937 4.0037 9.36411C3.91064 9.38273 2.73802 9.25892 1.70192 8.71915C1.56542 8.63229 1.49098 8.68189 1.47857 8.837C1.46616 9.06655 1.48477 9.27105 1.5158 9.51922C1.78258 11.6535 3.2654 13.6327 5.28799 14.402C5.52995 14.5013 5.79672 14.5943 6.05109 14.6377C5.59198 14.737 5.11425 14.8117 3.79274 14.7062C3.62523 14.6752 3.56321 14.7557 3.62525 14.917C4.61793 17.6283 6.76458 18.4349 8.37769 18.894C8.59483 18.9313 8.80576 18.9311 9.02291 18.9807C9.0105 18.9993 8.9981 18.9993 8.98569 19.018C8.45212 19.8307 6.60327 20.4387 5.74088 20.7365C4.17741 21.2825 2.47125 21.5307 0.814713 21.3694C0.547931 21.3322 0.49209 21.3322 0.423843 21.3694C0.349392 21.4128 0.411432 21.475 0.498291 21.5433C0.83332 21.7666 1.17457 21.9589 1.52201 22.1513C2.57052 22.7097 3.66867 23.1499 4.81646 23.4663C10.7353 25.0981 17.3987 23.9007 21.8471 19.4833C25.3339 16.0151 26.5623 11.238 26.5623 6.4483C26.5623 6.26217 26.7857 6.15677 26.916 6.05751C27.8218 5.37504 28.5539 4.55585 29.2363 3.65003C29.3852 3.44529 29.3914 3.26553 29.3914 3.19107C29.3914 3.17867 29.3914 3.16623 29.3914 3.16623C29.3852 3.09178 29.3852 3.11645 29.2674 3.17229Z" fill="#002863"/>
</svg>
