<svg width="17" height="17" viewBox="0 0 17 17" fill="none" xmlns="http://www.w3.org/2000/svg">
<path d="M15.4854 0.125977H2.01485C1.32469 0.125977 0.767578 0.683093 0.767578 1.37325V14.844C0.767578 15.5341 1.32469 16.0913 2.01485 16.0913H15.4854C16.1756 16.0913 16.7327 15.5341 16.7327 14.844V1.37325C16.7327 0.68725 16.1756 0.125977 15.4854 0.125977ZM8.75433 12.5987C8.35936 12.5987 7.97685 12.5696 7.60267 12.5198C7.22849 12.7817 5.06651 14.3034 4.86279 14.3283C4.86279 14.3283 4.77964 14.3616 4.70896 14.32C4.63828 14.2784 4.6508 14.1661 4.6508 14.1661C4.67159 14.0206 5.21206 12.1581 5.31184 11.8171C3.48666 10.9108 2.27262 9.31016 2.27262 7.48498C2.27262 4.66198 5.17465 2.37123 8.75849 2.37123C12.3423 2.37123 15.2443 4.66198 15.2443 7.48498C15.2443 10.308 12.334 12.5987 8.75433 12.5987Z" fill="#F3F4F7"/>
<path d="M5.16784 9.2738C4.95996 9.2738 4.79364 9.11171 4.79364 8.9163V6.69196H4.21157C4.00785 6.69196 3.8457 6.5257 3.8457 6.32614C3.8457 6.12657 4.01201 5.96032 4.21157 5.96032H6.12821C6.33193 5.96032 6.49408 6.12657 6.49408 6.32614C6.49408 6.5257 6.32778 6.69196 6.12821 6.69196H5.54614V8.9163C5.54198 9.11171 5.37572 9.2738 5.16784 9.2738ZM8.44818 9.26547C8.29019 9.26547 8.17378 9.20315 8.13636 9.09921L7.94924 8.61281H6.81006L6.62299 9.09921C6.58557 9.19899 6.46916 9.26547 6.31117 9.26547C6.22802 9.26547 6.149 9.249 6.07416 9.21574C5.97022 9.17 5.87046 9.03685 5.98687 8.68345L6.88076 6.32614C6.94312 6.14736 7.13435 5.96021 7.37965 5.95605C7.62495 5.96021 7.81617 6.14736 7.87854 6.32614L8.77243 8.67939C8.88468 9.03279 8.78908 9.16574 8.68514 9.21147C8.6103 9.24889 8.53133 9.26547 8.44818 9.26547ZM7.75384 7.95588L7.37965 6.89577L7.00546 7.95588H7.75384ZM9.37947 9.21574C9.17991 9.21574 9.02187 9.06187 9.02187 8.87063V6.3304C9.02187 6.12252 9.19235 5.95605 9.40439 5.95605C9.61643 5.95605 9.78691 6.12252 9.78691 6.3304V8.52978H10.581C10.7805 8.52978 10.9386 8.68353 10.9386 8.87063C10.9386 9.05772 10.7764 9.21574 10.581 9.21574H9.37947ZM11.4541 9.26547C11.2462 9.26547 11.0799 9.09921 11.0799 8.89133V6.3304C11.0799 6.12252 11.2462 5.95605 11.4541 5.95605C11.662 5.95605 11.8282 6.12252 11.8282 6.3304V7.13268L12.8718 6.08923C12.9258 6.03518 13.0007 6.00599 13.0797 6.00599C13.1711 6.00599 13.2668 6.04758 13.3374 6.11826C13.404 6.18478 13.4414 6.26786 13.4455 6.35517C13.4497 6.44248 13.4206 6.52575 13.3624 6.58396L12.5101 7.43618L13.4331 8.65442C13.4913 8.73342 13.5204 8.83317 13.5038 8.93295C13.4913 9.03273 13.4372 9.11998 13.3583 9.17818C13.2917 9.22807 13.2127 9.25309 13.1337 9.25309C13.0173 9.25309 12.9051 9.1991 12.8344 9.10348L11.9572 7.93923L11.8282 8.06814V8.88301C11.8282 9.0992 11.662 9.26547 11.4541 9.26547Z" fill="#F3F4F7"/>
</svg>
