<svg width="22" height="22" viewBox="0 0 22 22" fill="none" xmlns="http://www.w3.org/2000/svg">
<path d="M16.5706 4.47266C15.9023 4.47266 15.3555 5.01434 15.3555 5.68772C15.3555 6.35603 15.8972 6.90303 16.5706 6.90303C17.2389 6.90303 17.7857 6.36109 17.7857 5.68772C17.7806 5.01434 17.2389 4.47266 16.5706 4.47266Z" fill="#F3F4F6"/>
<path d="M11.1746 6.02637C8.36464 6.02637 6.07617 8.31474 6.07617 11.1247C6.07617 13.9346 8.36464 16.223 11.1746 16.223C13.9845 16.223 16.273 13.9346 16.273 11.1247C16.273 8.31474 13.9845 6.02637 11.1746 6.02637ZM11.1746 14.3852C9.37217 14.3852 7.90896 12.9219 7.90896 11.1195C7.90896 9.31708 9.37217 7.85403 11.1746 7.85403C12.977 7.85403 14.4402 9.31708 14.4402 11.1195C14.4402 12.9219 12.977 14.3852 11.1746 14.3852Z" fill="#F3F4F6"/>
<path d="M15.2242 21.4671H6.96145C3.53382 21.4671 0.744141 18.6773 0.744141 15.2497V6.98699C0.744141 3.55936 3.53382 0.769531 6.96145 0.769531H15.2242C18.6518 0.769531 21.4415 3.55936 21.4415 6.98699V15.2497C21.4415 18.6824 18.6518 21.4671 15.2242 21.4671ZM6.96145 2.71882C4.60717 2.71882 2.69337 4.63271 2.69337 6.98699V15.2497C2.69337 17.6039 4.60717 19.5178 6.96145 19.5178H15.2242C17.5785 19.5178 19.4923 17.6039 19.4923 15.2497V6.98699C19.4923 4.63271 17.5785 2.71882 15.2242 2.71882H6.96145Z" fill="#F3F4F6"/>
</svg>
