<svg width="25" height="25" viewBox="0 0 25 25" fill="none" xmlns="http://www.w3.org/2000/svg">
<path d="M22.5014 0.211914H2.3996C1.3697 0.211914 0.53833 1.04328 0.53833 2.07319V22.1752C0.53833 23.2051 1.3697 24.0364 2.3996 24.0364H22.5014C23.5313 24.0364 24.3626 23.2051 24.3626 22.1752V2.07319C24.3626 1.04949 23.5313 0.211914 22.5014 0.211914ZM12.4567 18.8246C11.8673 18.8246 11.2965 18.7812 10.7381 18.7068C10.1798 19.0977 6.9535 21.3685 6.64949 21.4057C6.64949 21.4057 6.52541 21.4553 6.41994 21.3933C6.31447 21.3312 6.33315 21.1636 6.33315 21.1636C6.36417 20.9465 7.1707 18.1671 7.3196 17.6583C4.59594 16.3058 2.78426 13.9172 2.78426 11.1935C2.78426 6.98086 7.11488 3.56245 12.4629 3.56245C17.811 3.56245 22.1415 6.98086 22.1415 11.1935C22.1415 15.4062 17.7986 18.8246 12.4567 18.8246Z" fill="#002863"/>
<path d="M7.10329 13.8626C6.79308 13.8626 6.5449 13.6207 6.5449 13.3291V10.0098H5.67629C5.37228 10.0098 5.13031 9.76169 5.13031 9.46388C5.13031 9.16608 5.37848 8.91798 5.67629 8.91798H8.53643C8.84044 8.91798 9.08241 9.16608 9.08241 9.46388C9.08241 9.76169 8.83424 10.0098 8.53643 10.0098H7.66782V13.3291C7.66162 13.6207 7.4135 13.8626 7.10329 13.8626ZM11.9984 13.8502C11.7627 13.8502 11.589 13.7572 11.5331 13.6021L11.2539 12.8762H9.55394L9.27478 13.6021C9.21894 13.751 9.04522 13.8502 8.80946 13.8502C8.68537 13.8502 8.56745 13.8256 8.45577 13.776C8.30067 13.7077 8.15179 13.509 8.32551 12.9816L9.65944 9.46388C9.7525 9.1971 10.0379 8.91783 10.4039 8.91162C10.77 8.91783 11.0553 9.1971 11.1484 9.46388L12.4823 12.9756C12.6498 13.5029 12.5072 13.7013 12.3521 13.7696C12.2404 13.8254 12.1225 13.8502 11.9984 13.8502ZM10.9623 11.8959L10.4039 10.3139L9.84552 11.8959H10.9623ZM13.3882 13.776C13.0904 13.776 12.8546 13.5463 12.8546 13.261V9.47025C12.8546 9.16003 13.109 8.91162 13.4254 8.91162C13.7418 8.91162 13.9962 9.16003 13.9962 9.47025V12.7523H15.1812C15.479 12.7523 15.7148 12.9818 15.7148 13.261C15.7148 13.5401 15.4728 13.776 15.1812 13.776H13.3882ZM16.4841 13.8502C16.1739 13.8502 15.9257 13.6021 15.9257 13.2919V9.47025C15.9257 9.16003 16.1739 8.91162 16.4841 8.91162C16.7943 8.91162 17.0424 9.16003 17.0424 9.47025V10.6675L18.5997 9.11035C18.6804 9.0297 18.792 8.98614 18.9099 8.98614C19.0464 8.98614 19.1891 9.0482 19.2946 9.15367C19.3938 9.25294 19.4497 9.37692 19.4559 9.5072C19.4621 9.63749 19.4187 9.76176 19.3318 9.84862L18.0599 11.1204L19.4373 12.9383C19.5242 13.0562 19.5676 13.2051 19.5428 13.354C19.5241 13.5029 19.4435 13.633 19.3256 13.7199C19.2264 13.7944 19.1084 13.8317 18.9906 13.8317C18.8168 13.8317 18.6494 13.7511 18.5439 13.6084L17.2348 11.8711L17.0424 12.0634V13.2794C17.0424 13.6021 16.7943 13.8502 16.4841 13.8502Z" fill="#002863"/>
</svg>
