<svg width="28" height="22" viewBox="0 0 28 22" fill="none" xmlns="http://www.w3.org/2000/svg">
<path d="M23.0826 2.59316C21.3827 1.81143 19.5524 1.2343 17.6477 0.905477C17.6105 0.899273 17.5794 0.918079 17.5608 0.9491C17.3251 1.36478 17.0645 1.9106 16.8846 2.33869C14.831 2.02848 12.7897 2.02848 10.7796 2.33869C10.5996 1.89819 10.3267 1.36478 10.0909 0.9491C10.0723 0.918079 10.0413 0.899273 10.004 0.905477C8.09313 1.2343 6.26907 1.81143 4.56911 2.59316C4.5567 2.59937 4.54433 2.61166 4.53193 2.62406C1.06996 7.7984 0.120719 12.8426 0.586037 17.8308C0.586037 17.8556 0.604611 17.8805 0.623223 17.8929C2.90638 19.5681 5.1213 20.5917 7.29278 21.268C7.33001 21.2804 7.36725 21.2678 7.38586 21.2368C7.90081 20.5357 8.3599 19.7977 8.75077 19.0159C8.77558 18.9725 8.7508 18.9164 8.70737 18.8978C7.98147 18.6248 7.28661 18.2838 6.62275 17.9053C6.57312 17.8743 6.56691 17.7999 6.61654 17.7627C6.75924 17.6572 6.89576 17.5455 7.03225 17.44C7.05707 17.4214 7.08803 17.4152 7.11905 17.4276C11.493 19.4254 16.2269 19.4254 20.545 17.4276C20.5761 17.4152 20.6071 17.4152 20.6319 17.44C20.7684 17.5517 20.9049 17.6634 21.0476 17.7627C21.0973 17.7999 21.091 17.8743 21.0414 17.9053C20.3776 18.2962 19.6827 18.6248 18.9568 18.8978C18.9072 18.9164 18.8885 18.9725 18.9133 19.0159C19.3166 19.7915 19.7758 20.5295 20.2783 21.2368C20.2969 21.2678 20.3341 21.2804 20.3714 21.268C22.5553 20.5917 24.7701 19.5743 27.0533 17.8929C27.0719 17.8805 27.0843 17.8556 27.0905 17.8308C27.6489 12.0671 26.1599 7.0601 23.1384 2.62406C23.1074 2.61166 23.095 2.59937 23.0826 2.59316ZM9.39603 14.7969C8.08073 14.7969 6.99499 13.5871 6.99499 12.1043C6.99499 10.6215 8.05591 9.41177 9.39603 9.41177C10.7424 9.41177 11.8157 10.6277 11.7971 12.1043C11.7971 13.5871 10.7299 14.7969 9.39603 14.7969ZM18.2681 14.7969C16.9528 14.7969 15.8671 13.5871 15.8671 12.1043C15.8671 10.6215 16.928 9.41177 18.2681 9.41177C19.6144 9.41177 20.6878 10.6277 20.6692 12.1043C20.6692 13.5871 19.6207 14.7969 18.2681 14.7969Z" fill="#002863"/>
</svg>
