<svg width="20" height="16" viewBox="0 0 20 16" fill="none" xmlns="http://www.w3.org/2000/svg">
<path d="M2.75321 3.5894C2.77816 3.35242 2.68668 3.11959 2.51207 2.95744L0.71185 0.787296V0.462891H6.3038L10.6277 9.9423L14.4277 0.462891H19.7577V0.787296L18.2194 2.26316C18.0864 2.36294 18.0199 2.52926 18.049 2.69556V13.5426C18.0199 13.7089 18.0864 13.8753 18.2194 13.975L19.7244 15.4511V15.7753H12.1618V15.4511L13.7209 13.9377C13.8747 13.7839 13.8747 13.7381 13.8747 13.5053V4.737L9.54253 15.7379H8.95634L3.91319 4.737V12.1084C3.87162 12.4202 3.97553 12.732 4.19172 12.9566L6.21646 15.4135V15.7379H0.470703V15.4135L2.49544 12.9566C2.71164 12.732 2.80726 12.416 2.75737 12.1084V3.5894H2.75321Z" fill="#F3F4F7"/>
</svg>
