<svg width="19" height="19" viewBox="0 0 19 19" fill="none" xmlns="http://www.w3.org/2000/svg">
<path d="M9.18411 0C4.11186 0 0 4.11199 0 9.18424C0 14.2565 4.11186 18.3683 9.18411 18.3683C14.2564 18.3683 18.3682 14.2565 18.3682 9.18424C18.3682 4.11199 14.2564 0 9.18411 0ZM13.5662 5.97044C13.5412 6.34046 13.3292 7.64165 13.113 9.05107L12.4478 13.217C12.4478 13.217 12.3938 13.8282 11.9448 13.9322C11.4957 14.0361 10.7515 13.5622 10.6185 13.4541C10.5104 13.3751 8.627 12.1818 7.93684 11.5956C7.74975 11.4376 7.53771 11.1174 7.96178 10.7474C8.91803 9.87014 10.0572 8.78506 10.7474 8.0949C11.0675 7.77477 11.3835 7.03477 10.0572 7.93696L6.31537 10.4605C6.31537 10.4605 5.89129 10.7267 5.09304 10.4855C4.29478 10.2485 3.36766 9.92846 3.36766 9.92846C3.36766 9.92846 2.73153 9.52934 3.82082 9.10527L10.0073 6.55652C10.6185 6.29043 12.689 5.44241 12.689 5.44241C12.689 5.44241 13.6452 5.06824 13.5662 5.97044Z" fill="#F3F4F7"/>
</svg>
