<svg width="26" height="26" viewBox="0 0 26 26" fill="none" xmlns="http://www.w3.org/2000/svg">
<path d="M19.7922 5.00977C18.9733 5.00977 18.3032 5.67356 18.3032 6.49872C18.3032 7.31768 18.9671 7.98798 19.7922 7.98798C20.6112 7.98798 21.2813 7.32389 21.2813 6.49872C21.275 5.67356 20.6112 5.00977 19.7922 5.00977Z" fill="#002863"/>
<path d="M13.1765 6.91406C9.73315 6.91406 6.92883 9.71827 6.92883 13.1616C6.92883 16.605 9.73315 19.4092 13.1765 19.4092C16.6199 19.4092 19.4242 16.605 19.4242 13.1616C19.4242 9.71827 16.6199 6.91406 13.1765 6.91406ZM13.1765 17.1571C10.9678 17.1571 9.17477 15.364 9.17477 13.1553C9.17477 10.9466 10.9678 9.15371 13.1765 9.15371C15.3852 9.15371 17.1783 10.9466 17.1783 13.1553C17.1783 15.364 15.3852 17.1571 13.1765 17.1571Z" fill="#002863"/>
<path d="M18.1362 25.8363H8.01088C3.81061 25.8363 0.39209 22.4176 0.39209 18.2173V8.09212C0.39209 3.89185 3.81061 0.473145 8.01088 0.473145H18.1362C22.3365 0.473145 25.755 3.89185 25.755 8.09212V18.2173C25.755 22.4238 22.3365 25.8363 18.1362 25.8363ZM8.01088 2.86184C5.12591 2.86184 2.78071 5.20715 2.78071 8.09212V18.2173C2.78071 21.1023 5.12591 23.4476 8.01088 23.4476H18.1362C21.0212 23.4476 23.3664 21.1023 23.3664 18.2173V8.09212C23.3664 5.20715 21.0212 2.86184 18.1362 2.86184H8.01088Z" fill="#002863"/>
</svg>
