<svg width="18" height="18" viewBox="0 0 18 18" fill="none" xmlns="http://www.w3.org/2000/svg">
<path d="M13.9626 3.67285C13.4138 3.67285 12.9648 4.11767 12.9648 4.67063C12.9648 5.21943 13.4097 5.66861 13.9626 5.66861C14.5114 5.66861 14.9605 5.22359 14.9605 4.67063C14.9563 4.11767 14.5114 3.67285 13.9626 3.67285Z" fill="#F3F4F7"/>
<path d="M9.52849 4.94922C7.22103 4.94922 5.3418 6.82837 5.3418 9.13583C5.3418 11.4433 7.22103 13.3224 9.52849 13.3224C11.8359 13.3224 13.7152 11.4433 13.7152 9.13583C13.7152 6.82837 11.8359 4.94922 9.52849 4.94922ZM9.52849 11.8133C8.04839 11.8133 6.84684 10.6117 6.84684 9.13157C6.84684 7.65147 8.04839 6.45005 9.52849 6.45005C11.0086 6.45005 12.2101 7.65147 12.2101 9.13157C12.2101 10.6117 11.0086 11.8133 9.52849 11.8133Z" fill="#F3F4F7"/>
<path d="M12.8536 17.6282H6.06839C3.25371 17.6282 0.962891 15.3372 0.962891 12.5226V5.73746C0.962891 2.92278 3.25371 0.631836 6.06839 0.631836H12.8536C15.6683 0.631836 17.9591 2.92278 17.9591 5.73746V12.5226C17.9591 15.3414 15.6683 17.6282 12.8536 17.6282ZM6.06839 2.23255C4.13511 2.23255 2.56355 3.80419 2.56355 5.73746V12.5226C2.56355 14.4558 4.13511 16.0275 6.06839 16.0275H12.8536C14.7868 16.0275 16.3584 14.4558 16.3584 12.5226V5.73746C16.3584 3.80419 14.7868 2.23255 12.8536 2.23255H6.06839Z" fill="#F3F4F7"/>
</svg>
