<svg width="18" height="14" viewBox="0 0 18 14" fill="none" xmlns="http://www.w3.org/2000/svg">
<path d="M15.2353 1.39151C14.0961 0.867653 12.8696 0.480908 11.5932 0.260556C11.5683 0.256399 11.5475 0.269001 11.535 0.289789C11.377 0.568347 11.2024 0.934109 11.0819 1.22098C9.70569 1.0131 8.33781 1.0131 6.99075 1.22098C6.87018 0.925794 6.68725 0.568347 6.52927 0.289789C6.51679 0.269001 6.496 0.256399 6.47105 0.260556C5.19052 0.480908 3.96818 0.867653 2.82901 1.39151C2.82069 1.39567 2.8124 1.4039 2.80409 1.41222C0.484157 4.87964 -0.151947 8.25986 0.159871 11.6026C0.159871 11.6192 0.172318 11.6359 0.18479 11.6442C1.71478 12.7667 3.19904 13.4527 4.65419 13.9059C4.67914 13.9142 4.70409 13.9058 4.71657 13.885C5.06165 13.4152 5.36929 12.9206 5.63121 12.3967C5.64784 12.3676 5.63124 12.33 5.60213 12.3175C5.1157 12.1346 4.65005 11.9061 4.20519 11.6525C4.17193 11.6317 4.16777 11.5818 4.20103 11.5569C4.29665 11.4862 4.38814 11.4114 4.47961 11.3407C4.49624 11.3282 4.51698 11.324 4.53777 11.3324C7.46886 12.6711 10.6411 12.6711 13.5348 11.3324C13.5556 11.324 13.5764 11.324 13.593 11.3407C13.6845 11.4155 13.7759 11.4904 13.8716 11.5569C13.9048 11.5818 13.9007 11.6317 13.8674 11.6525C13.4225 11.9144 12.9569 12.1346 12.4705 12.3175C12.4372 12.33 12.4247 12.3676 12.4413 12.3967C12.7116 12.9164 13.0193 13.411 13.356 13.885C13.3685 13.9058 13.3935 13.9142 13.4184 13.9059C14.8819 13.4527 16.3661 12.7709 17.8961 11.6442C17.9086 11.6359 17.9169 11.6192 17.9211 11.6026C18.2952 7.74016 17.2974 4.38489 15.2727 1.41222C15.2519 1.4039 15.2436 1.39567 15.2353 1.39151ZM6.06362 9.56944C5.18221 9.56944 4.45464 8.75878 4.45464 7.76512C4.45464 6.77145 5.16558 5.96079 6.06362 5.96079C6.96581 5.96079 7.68507 6.77561 7.6726 7.76512C7.6726 8.75878 6.9575 9.56944 6.06362 9.56944ZM12.009 9.56944C11.1276 9.56944 10.4 8.75878 10.4 7.76512C10.4 6.77145 11.1109 5.96079 12.009 5.96079C12.9112 5.96079 13.6304 6.77561 13.618 7.76512C13.618 8.75878 12.9153 9.56944 12.009 9.56944Z" fill="#F3F4F7"/>
</svg>
