<svg width="23" height="18" viewBox="0 0 23 18" fill="none" xmlns="http://www.w3.org/2000/svg">
<path d="M19.171 2.13015C17.7838 1.49222 16.2902 1.02125 14.7358 0.752916C14.7055 0.747853 14.6801 0.7632 14.665 0.788515C14.4726 1.12773 14.2599 1.57315 14.1131 1.92249C12.4373 1.66934 10.7715 1.66934 9.13111 1.92249C8.98428 1.56302 8.76152 1.12773 8.56913 0.788515C8.55394 0.7632 8.52862 0.747853 8.49824 0.752916C6.93885 1.02125 5.45033 1.49222 4.06308 2.13015C4.05295 2.13521 4.04286 2.14524 4.03273 2.15537C1.20759 6.37788 0.432968 10.4942 0.81269 14.5648C0.81269 14.5851 0.827847 14.6054 0.843036 14.6155C2.70621 15.9825 4.51369 16.8179 6.28572 17.3697C6.3161 17.3799 6.34649 17.3696 6.36168 17.3443C6.78191 16.7722 7.15654 16.1699 7.47551 15.5319C7.49576 15.4965 7.47554 15.4507 7.4401 15.4355C6.84773 15.2127 6.28068 14.9345 5.73895 14.6256C5.69844 14.6003 5.69338 14.5396 5.73388 14.5092C5.85033 14.4231 5.96173 14.332 6.07312 14.2459C6.09337 14.2307 6.11863 14.2257 6.14395 14.2358C9.71334 15.8661 13.5764 15.8661 17.1002 14.2358C17.1255 14.2257 17.1509 14.2257 17.1711 14.2459C17.2825 14.3371 17.3939 14.4282 17.5103 14.5092C17.5508 14.5396 17.5458 14.6003 17.5053 14.6256C16.9635 14.9446 16.3965 15.2127 15.8041 15.4355C15.7636 15.4507 15.7484 15.4965 15.7687 15.5319C16.0977 16.1648 16.4724 16.7671 16.8825 17.3443C16.8977 17.3696 16.9281 17.3799 16.9585 17.3697C18.7407 16.8179 20.5481 15.9876 22.4113 14.6155C22.4264 14.6054 22.4366 14.5851 22.4417 14.5648C22.8973 9.86133 21.6822 5.77539 19.2166 2.15537C19.1912 2.14524 19.1811 2.13521 19.171 2.13015ZM8.00208 12.089C6.92873 12.089 6.04271 11.1018 6.04271 9.89172C6.04271 8.68167 6.90848 7.69447 8.00208 7.69447C9.10074 7.69447 9.97663 8.68673 9.96144 9.89172C9.96144 11.1018 9.09062 12.089 8.00208 12.089ZM15.2421 12.089C14.1688 12.089 13.2828 11.1018 13.2828 9.89172C13.2828 8.68167 14.1485 7.69447 15.2421 7.69447C16.3408 7.69447 17.2167 8.68673 17.2015 9.89172C17.2015 11.1018 16.3459 12.089 15.2421 12.089Z" fill="#F3F4F6"/>
</svg>
