<svg width="20" height="17" viewBox="0 0 20 17" fill="none" xmlns="http://www.w3.org/2000/svg">
<path d="M19.4563 2.10976C18.841 2.38832 18.1592 2.55882 17.4898 2.67108C17.8058 2.61703 18.2714 2.04741 18.4544 1.81459C18.7371 1.4612 18.9741 1.05797 19.1071 0.625578C19.1237 0.592317 19.1362 0.550741 19.1029 0.521638C19.0614 0.505008 19.0323 0.513331 18.999 0.529961C18.2548 0.929089 17.4857 1.21602 16.6708 1.41974C16.6042 1.43637 16.5543 1.4197 16.5086 1.37812C16.4421 1.30329 16.3756 1.22845 16.3049 1.17025C15.9598 0.879215 15.5939 0.646325 15.1782 0.480022C14.6335 0.255512 14.0349 0.164078 13.4486 0.201496C12.8749 0.238914 12.3136 0.401109 11.8064 0.667194C11.2992 0.933279 10.8418 1.30334 10.4801 1.74821C10.1059 2.2097 9.83153 2.75437 9.69017 3.33227C9.55297 3.88939 9.56545 4.44215 9.6486 5.00342C9.66108 5.09905 9.65276 5.11172 9.56961 5.09924C6.36827 4.62112 3.71989 3.47766 1.56626 1.02469C1.47479 0.916592 1.42073 0.9166 1.3459 1.03301C0.402126 2.44659 0.859475 4.71259 2.03607 5.82682C2.19406 5.97649 2.3562 6.12182 2.52666 6.25902C2.4643 6.27149 1.67851 6.18853 0.98419 5.82682C0.892723 5.76861 0.842838 5.80185 0.834523 5.90579C0.826208 6.05962 0.83868 6.19666 0.859468 6.36296C1.03824 7.79317 2.03191 9.11949 3.38728 9.63503C3.54943 9.70155 3.7282 9.76386 3.89866 9.79297C3.591 9.85949 3.27086 9.90953 2.38529 9.83885C2.27304 9.81806 2.23148 9.87204 2.27306 9.98014C2.93827 11.797 4.37678 12.3376 5.45775 12.6452C5.60327 12.6702 5.74462 12.67 5.89013 12.7033C5.88182 12.7157 5.8735 12.7158 5.86519 12.7282C5.50764 13.2729 4.26868 13.6803 3.69078 13.8799C2.64307 14.2458 1.49973 14.4121 0.389659 14.304C0.210883 14.279 0.173462 14.279 0.127729 14.304C0.077838 14.3331 0.119412 14.3748 0.177618 14.4205C0.402127 14.5702 0.630805 14.6991 0.863629 14.8279C1.56626 15.2021 2.30215 15.4972 3.0713 15.7092C7.03764 16.8026 11.5029 16.0003 14.4839 13.0401C16.8204 10.716 17.6436 7.51473 17.6436 4.30508C17.6436 4.18035 17.7933 4.10972 17.8806 4.0432C18.4876 3.58587 18.9782 3.03691 19.4355 2.4299C19.5353 2.2927 19.5395 2.17224 19.5395 2.12235C19.5395 2.11403 19.5395 2.1057 19.5395 2.1057C19.5353 2.05581 19.5353 2.07234 19.4563 2.10976Z" fill="#F3F4F7"/>
</svg>
